<?xml version="1.0" encoding="UTF-8"?>
<svg width="379px" height="172px" viewBox="0 0 379 172" version="1.1" xmlns="http://www.w3.org/2000/svg" xmlns:xlink="http://www.w3.org/1999/xlink">
    <!-- Generator: Sketch 48.1 (47250) - http://www.bohemiancoding.com/sketch -->
    <title>Handbook facing shapes Copy</title>
    <desc>Created with Sketch.</desc>
    <defs></defs>
    <g id="HF-V3---Handbook" stroke="none" stroke-width="1" fill="none" fill-rule="evenodd" transform="translate(-832.000000, -344.000000)">
        <g id="Handbook-facing-shapes-Copy" transform="translate(843.000000, 344.000000)">
            <rect id="Rectangle-Copy-3" stroke="#E95741" stroke-width="16" x="58.4" y="8" width="112" height="155.360524"></rect>
            <rect id="Rectangle-Copy-14" stroke="#99C9AF" stroke-width="16" x="202.4" y="8" width="123.6" height="155.360524"></rect>
            <path d="M326.5,70.5022646 C307.723569,70.5022646 292.502265,85.7235692 292.502265,104.5 C292.502265,123.276431 307.723569,138.497735 326.5,138.497735 L326.502265,138.497735 C345.278695,138.497735 360.5,123.276431 360.5,104.5 C360.5,85.7235692 345.278695,70.5022646 326.502265,70.5022646 L326.5,70.5022646 Z" id="Rectangle-3-Copy" stroke="#DC8F69" stroke-width="15"></path>
            <path d="M0.4,69.1849315 L87,111" id="Line" stroke="#E9CC9D" stroke-width="16" stroke-linecap="square"></path>
            <path d="M260.700717,44.9466252 C256.203978,47.7953642 251.468833,49.3027744 246.109775,49.0403405 C242.746732,48.8767947 239.373543,47.9272151 236.094195,49.0694998 C234.488761,49.6273303 234.099449,50.6124083 232.669014,51.1448829 C230.916478,53.49411 228.477891,53.357188 225.354521,50.7341168 C224.948724,49.8086252 224.541659,48.8818659 224.134594,47.9576422 C222.838579,44.6905303 222.028253,41.9153236 219.513579,39.3100015 C218.818652,38.5886252 217.734413,38.5315744 216.883507,38.970232 C214.415753,40.241832 212.948543,41.9267337 211.165572,44.0528286 C210.290572,45.2952693 209.326804,46.4705168 208.278072,47.5747676 C206.033507,47.441649 203.788942,47.3072625 201.545645,47.1741439 C200.628797,46.5579947 200.116478,44.6220693 199.464666,43.6636151 C197.386224,40.6082252 194.253978,38.6722998 190.894739,41.3803134 C185.595282,45.6565913 182.606333,65.6256558 172.621188,56.0956286 C167.446007,51.156293 166.667384,43.7396829 159.988217,40.0605371 C159.130971,39.5889168 158.061949,39.7156964 157.359413,40.4003066 C153.092203,44.5510727 152.01684,53.1163066 146.784594,55.8547473 C136.322637,61.3265575 133.898,40.4434117 127.212492,36.8225846 C122.284594,34.1513371 119.801623,38.5049507 117.648362,42.4579405 C115.930065,45.6160219 114.620101,48.9211676 113.463579,52.3175947 C112.24492,55.9041913 112.091478,57.8756151 107.759594,54.9241846 C105.509956,53.3914185 103.612855,50.5350727 102.127891,48.3709439 C100.559232,46.082571 96.7967315,48.2505032 98.3818765,50.5616964 C101.150174,54.597093 108.586405,65.2972964 114.413398,60.4200829 C117.208326,58.0797303 117.676261,53.0896829 118.944376,49.9176558 C119.823181,47.7192964 121.081152,43.6040286 122.94021,42.0180151 C126.258869,39.188293 128.332239,44.898449 129.708145,47.6508354 C132.882239,53.9961575 138.011768,63.0025846 146.675536,60.7585846 C153.978616,58.8657642 155.113579,50.0862727 159.276804,44.7754727 C165.49184,49.4650524 166.242565,58.9684558 174.070645,62.3712219 C181.28242,65.5077507 185.297275,59.8229507 188.363579,54.1787202 C189.450355,52.1781371 190.454703,48.9807541 192.037311,47.3529032 C194.49492,44.829988 195.547456,45.71491 197.078072,48.1807744 C198.290391,50.134449 199.56992,52.1882795 201.756152,53.1480015 C209.106152,56.3745439 212.754521,47.6077303 217.504884,43.7625032 C221.065753,49.3129168 223.334413,61.7423947 232.35579,57.0566185 C234.799449,55.7875541 235.461405,54.2814117 238.417384,53.5422863 C242.039123,52.6370795 245.350174,53.5980693 249.035318,53.3863473 C254.045645,53.0998252 258.681876,51.3591405 262.892021,48.6929642 C265.243108,47.2020354 263.06829,43.4455541 260.700717,44.9466252" id="Fill-11" fill="#3C3C3B"></path>
        </g>
    </g>
</svg>