<?xml version="1.0" encoding="UTF-8"?>
<svg width="1198px" height="818px" viewBox="0 0 1198 818" version="1.1" xmlns="http://www.w3.org/2000/svg" xmlns:xlink="http://www.w3.org/1999/xlink">
    <!-- Generator: Sketch 48.1 (47250) - http://www.bohemiancoding.com/sketch -->
    <title>Shapes</title>
    <desc>Created with Sketch.</desc>
    <defs>
        <polygon id="path-1" points="110.082085 114.148148 0.000755050505 114.148148 0.000755050505 0.204884412 110.082085 0.204884412"></polygon>
        <polygon id="path-3" points="0 0 65 0 65 22 5.3833425e-16 22"></polygon>
        <polygon id="path-5" points="0 0 65 0 65 22 5.3833425e-16 22"></polygon>
        <polygon id="path-7" points="57 0 0 0 0 330 57 330"></polygon>
    </defs>
    <g id="HF-V3---Main-scroll" stroke="none" stroke-width="1" fill="none" fill-rule="evenodd" transform="translate(-242.000000, 0.000000)">
        <g id="Animation-slide" transform="translate(0.000000, -48.000000)">
            <g id="Shapes" transform="translate(242.000000, 0.000000)">
                <polygon id="Fill-32-Copy-2" fill="#99C9AF" points="1040 851.662 1058.76865 851.662 1058.76865 743 1040 743"></polygon>
                <path d="M967.443156,701.47116 C967.443156,679.635233 984.811429,661.868444 1006.48398,661.198143 L1006.48398,644.47116 C975.004272,644.47116 949.48398,669.991452 949.48398,701.47116 C949.48398,732.950869 975.004272,758.47116 1006.48398,758.47116 L1006.48398,741.744177 C984.811429,741.073877 967.443156,723.307088 967.443156,701.47116" id="Fill-36-Copy-2" fill="#E95741" transform="translate(977.983980, 701.471160) rotate(50.000000) translate(-977.983980, -701.471160) "></path>
                <rect id="Rectangle-Copy-14" stroke="#DC8F69" stroke-width="20" x="1079" y="10" width="139" height="240"></rect>
                <path d="M116.752537,114.247463 L197.248966,114.247463 L197.248966,33.7510338 L116.752537,33.7510338 L116.752537,114.247463 Z M101,130 L213,130 L213,18 L101,18 L101,130 Z" id="Fill-25-Copy-2" fill="#FBEFD8"></path>
                <circle id="Oval-2-Copy-3" stroke="#8A8C77" stroke-width="15" cx="165.5" cy="379.5" r="37.5"></circle>
                <g id="Circles-lines" transform="translate(906.500000, 102.500000) rotate(90.000000) translate(-906.500000, -102.500000) translate(851.000000, 45.000000)">
                    <g id="Group-3">
                        <mask id="mask-2" fill="white">
                            <use xlink:href="#path-1"></use>
                        </mask>
                        <g id="Clip-2"></g>
                        <path d="M93.4659402,57.1766427 C93.4659402,79.4247196 75.5058056,97.4607635 53.3501069,97.4607635 C31.1956667,97.4607635 13.2342736,79.4247196 13.2342736,57.1766427 C13.2342736,34.927302 31.1956667,16.891258 53.3501069,16.891258 C75.5058056,16.891258 93.4659402,34.927302 93.4659402,57.1766427 M0.000755050505,76.5977416 C7.90739226,98.4995547 28.8097071,114.148401 53.3501069,114.148401 C84.682186,114.148401 110.082085,88.6411481 110.082085,57.1766427 C110.082085,25.7121372 84.682186,0.204884412 53.3501069,0.204884412 C28.933032,0.204884412 8.1188064,15.6957635 0.120304714,37.4244449" id="Fill-1" fill="#99C9AF" mask="url(#mask-2)"></path>
                    </g>
                    <g id="Group-10" transform="translate(16.000000, 11.000000)" fill="#FBEFD8" stroke="#FBEFD8" stroke-width="2">
                        <path d="M0.917500615,31.82587 C19.729989,47.5950494 39.6688462,62.6264163 60.0174059,76.3622345 C62.3616061,77.9441546 64.5579626,74.1550496 62.2313032,72.5831338 C42.1872013,59.053653 22.5452845,44.2623878 4.01846024,28.730809 C1.87096739,26.9300463 -1.24753302,30.0113514 0.917500615,31.82587" id="Fill-4"></path>
                        <path d="M4.2324462,4.67550556 C25.7026282,26.3382756 48.0798774,47.0654485 71.320344,66.816945 C73.4589681,68.6342831 76.5760722,65.54819 74.421161,63.7183272 C51.1794415,43.9668307 28.8034452,23.2396578 7.33326317,1.57563531 C5.34498174,-0.430826164 2.24416477,2.66779162 4.2324462,4.67550556" id="Fill-6"></path>
                        <path d="M30.6262605,4.73540752 C46.8111376,21.6861539 63.7802369,37.8394861 81.5082201,53.1713551 C83.656913,55.0281909 86.8064711,51.9081499 84.6438421,50.0386567 C66.9158589,34.7067877 49.9467596,18.5534554 33.7618825,1.60270911 C31.7880243,-0.464238981 28.656203,2.67225665 30.6262605,4.73540752" id="Fill-8"></path>
                    </g>
                </g>
                <g id="Scribble-2" transform="translate(138.000000, 796.000000)">
                    <mask id="mask-4" fill="white">
                        <use xlink:href="#path-3"></use>
                    </mask>
                    <g id="Clip-2"></g>
                    <path d="M0.386298559,4.39400308 C3.25100016,9.60940928 8.02717224,21.8892899 15.3425116,21.9993337 C17.8783402,22.0360149 19.8682727,20.5537591 21.3991185,18.664675 C22.63281,17.1407359 25.0050366,7.73032911 26.1252084,7.35851466 C30.2002297,6.00964522 30.3421293,13.6843622 31.9948418,15.9185835 C33.4655889,17.9060401 35.8962448,19.5350209 38.2267363,20.2769824 C40.3685849,20.9605875 42.8543312,21.2090195 44.8542803,19.9368473 C45.8459077,19.3065968 46.672264,18.0460958 47.1831024,17.0590368 C47.5052978,16.3404179 47.7273289,15.5884523 47.850865,14.7998055 C48.1430111,9.81949278 52.0327283,8.93247357 59.5200166,12.1404152 C61.4498505,15.3600282 66.5031441,12.4288632 64.5649631,9.19757893 C61.0441848,3.32191031 53.9291741,0.262360963 47.6855937,4.31063662 C44.2749962,6.52151533 44.5754894,9.45101299 42.4085997,12.255461 C37.3235874,18.8314079 36.0999124,8.23886456 34.6759086,4.92754848 C32.4338957,-0.284523063 26.7278642,-1.72176096 22.5860666,2.36486327 C20.35407,4.56907267 19.7530837,7.62362003 18.8148772,10.4497433 C15.2924295,21.0456213 7.45122699,5.12596067 5.43124509,1.44783213 C3.62160841,-1.84514333 -1.42500752,1.09435831 0.386298559,4.39400308" id="Fill-1" fill="#FBEFD8" mask="url(#mask-4)"></path>
                </g>
                <g id="Scribble" transform="translate(1101.500000, 319.000000) rotate(180.000000) translate(-1101.500000, -319.000000) translate(1069.000000, 308.000000)">
                    <mask id="mask-6" fill="white">
                        <use xlink:href="#path-5"></use>
                    </mask>
                    <g id="Clip-2"></g>
                    <path d="M0.386298559,4.39400308 C3.25100016,9.60940928 8.02717224,21.8892899 15.3425116,21.9993337 C17.8783402,22.0360149 19.8682727,20.5537591 21.3991185,18.664675 C22.63281,17.1407359 25.0050366,7.73032911 26.1252084,7.35851466 C30.2002297,6.00964522 30.3421293,13.6843622 31.9948418,15.9185835 C33.4655889,17.9060401 35.8962448,19.5350209 38.2267363,20.2769824 C40.3685849,20.9605875 42.8543312,21.2090195 44.8542803,19.9368473 C45.8459077,19.3065968 46.672264,18.0460958 47.1831024,17.0590368 C47.5052978,16.3404179 47.7273289,15.5884523 47.850865,14.7998055 C48.1430111,9.81949278 52.0327283,8.93247357 59.5200166,12.1404152 C61.4498505,15.3600282 66.5031441,12.4288632 64.5649631,9.19757893 C61.0441848,3.32191031 53.9291741,0.262360963 47.6855937,4.31063662 C44.2749962,6.52151533 44.5754894,9.45101299 42.4085997,12.255461 C37.3235874,18.8314079 36.0999124,8.23886456 34.6759086,4.92754848 C32.4338957,-0.284523063 26.7278642,-1.72176096 22.5860666,2.36486327 C20.35407,4.56907267 19.7530837,7.62362003 18.8148772,10.4497433 C15.2924295,21.0456213 7.45122699,5.12596067 5.43124509,1.44783213 C3.62160841,-1.84514333 -1.42500752,1.09435831 0.386298559,4.39400308" id="Fill-1" fill="#FBEFD8" mask="url(#mask-6)"></path>
                </g>
                <g id="Measure-line" transform="translate(165.000000, 837.500000) rotate(90.000000) translate(-165.000000, -837.500000) translate(136.500000, 672.500000)">
                    <mask id="mask-8" fill="white">
                        <use xlink:href="#path-7"></use>
                    </mask>
                    <g id="Clip-2"></g>
                    <path d="M53.3098761,321.838103 C48.6460034,322.122558 43.9861987,322.242435 39.3304618,322.285103 C39.3385977,322.153035 39.3630052,322.031126 39.3589373,321.888899 C36.5134258,217.295068 38.0083872,112.414751 31.7946362,7.9347026 C35.5391585,8.09724789 39.2836807,8.31465222 43.030237,8.63567917 C47.9463208,9.05423329 47.9178454,1.39022286 43.030237,0.973700552 C29.9172901,-0.143798318 16.8267169,-0.298216344 3.68936248,0.504351026 C-1.21248363,0.800996181 -1.24706097,8.46500661 3.68936248,8.16226601 C10.5092339,7.7457437 17.3128335,7.60148476 24.1143993,7.70307556 C30.342388,112.260333 28.8433587,217.217859 31.6909042,321.888899 C31.6949721,322.022999 31.7234475,322.13678 31.7376853,322.262753 C25.8168247,322.151003 19.8959641,321.870612 13.9710356,321.366722 C9.05495171,320.948168 9.08139321,328.608115 13.9710356,329.024637 C27.0839824,330.142136 40.1745557,330.298586 53.3098761,329.49805 C58.2137562,329.197341 58.2462995,321.537395 53.3098761,321.838103" id="Fill-1" stroke="#263332" fill="#FBEFD8" mask="url(#mask-8)"></path>
                </g>
                <path d="M771.458602,333.231231 C742.745456,344.813275 713.440411,354.74545 683.621578,363.048575 C686.103732,360.125306 689.974505,357.066717 691.812688,355.350923 C696.334375,351.136905 701.255289,347.516215 706.486907,344.233826 C709.788346,342.162382 706.809761,336.867535 703.485757,338.954593 C696.568704,343.293522 690.102952,348.243129 684.390525,354.098341 C680.799212,357.779752 674.036643,363.636699 674.000192,369.262907 C673.958533,375.428663 680.710688,378.325909 685.399009,380.451134 C693.827919,384.267865 702.550176,386.996828 711.607436,388.87223 C715.417456,389.6616 717.121985,383.830676 713.291135,383.036102 C707.340907,381.804339 685.017139,377.815855 681.720907,369.885728 C712.73048,361.393502 743.184606,351.133435 773.00344,339.105527 C776.573924,337.665579 775.086367,331.768729 771.458602,333.231231" id="Fill-29" fill="#FBEFD8"></path>
            </g>
        </g>
    </g>
</svg>