<?xml version="1.0" encoding="UTF-8"?>
<svg width="375px" height="634px" viewBox="0 0 375 634" version="1.1" xmlns="http://www.w3.org/2000/svg" xmlns:xlink="http://www.w3.org/1999/xlink">
    <!-- Generator: Sketch 48.1 (47250) - http://www.bohemiancoding.com/sketch -->
    <title>Shapes BG</title>
    <desc>Created with Sketch.</desc>
    <defs>
        <polygon id="path-1" points="0 0 47 0 47 16 3.89257073e-16 16"></polygon>
        <polygon id="path-3" points="0 0 46 0 46 16 3.80975008e-16 16"></polygon>
        <polygon id="path-5" points="110.082085 114.148148 0.000755050505 114.148148 0.000755050505 0.204884412 110.082085 0.204884412"></polygon>
    </defs>
    <g id="Mobile---homepage" stroke="none" stroke-width="1" fill="none" fill-rule="evenodd">
        <g id="Shapes-BG" transform="translate(-36.000000, -34.000000)">
            <rect id="Rectangle-Copy-14" stroke="#DC8F69" stroke-width="15" x="362.5" y="27.5" width="57" height="103"></rect>
            <path d="M362.443156,395.47116 C362.443156,373.635233 379.811429,355.868444 401.48398,355.198143 L401.48398,338.47116 C370.004272,338.47116 344.48398,363.991452 344.48398,395.47116 C344.48398,426.950869 370.004272,452.47116 401.48398,452.47116 L401.48398,435.744177 C379.811429,435.073877 362.443156,417.307088 362.443156,395.47116" id="Fill-36-Copy-2" fill="#E95741" transform="translate(372.983980, 395.471160) rotate(50.000000) translate(-372.983980, -395.471160) "></path>
            <polygon id="Fill-32-Copy-2" fill="#FBEFD8" points="392 577.662 410.768653 577.662 410.768653 469 392 469"></polygon>
            <circle id="Circle" stroke="#8A8C77" stroke-width="15" cx="37.5" cy="416.5" r="37.5"></circle>
            <g id="Scribble-2" transform="translate(103.000000, 652.000000)">
                <mask id="mask-2" fill="white">
                    <use xlink:href="#path-1"></use>
                </mask>
                <g id="Clip-2"></g>
                <path d="M0.279323574,3.19563861 C2.35072319,6.9886613 5.804263,15.9194836 11.0938161,15.9995154 C12.9274152,16.0261927 14.3662895,14.9481884 15.4732088,13.5743091 C16.3652626,12.4659898 18.0805649,5.62205753 18.8905353,5.35164703 C21.8370892,4.37065107 21.9396935,9.95226342 23.1347317,11.5771517 C24.1981951,13.0225746 25.9557463,14.2072879 27.6408709,14.7468963 C29.1895922,15.2440636 30.986978,15.4247415 32.433095,14.4995253 C33.1501179,14.0411613 33.747637,13.1244333 34.1170125,12.4065722 C34.3499846,11.8839403 34.5105301,11.3370562 34.5998562,10.7634949 C34.8111003,7.14144929 37.6236651,6.49634441 43.0375505,8.8293929 C44.4329689,11.1709296 48.0868888,9.03917324 46.6854349,6.68914832 C44.1396413,2.41593477 38.9949413,0.190807973 34.4803524,3.13500845 C32.014228,4.74292024 32.2315077,6.873464 30.6646798,8.91306251 C26.9878247,13.6955694 26.1030136,5.9919015 25.0733493,3.58367162 C23.4522015,-0.206925864 19.3263018,-1.25218979 16.3314635,1.71990056 C14.7175583,3.32296194 14.282999,5.54445093 13.6046035,7.59981329 C11.0576028,15.3059064 5.38781028,3.7279714 3.92720799,1.05296882 C2.61870147,-1.34192242 -1.03039006,0.795896951 0.279323574,3.19563861" id="Fill-1" fill="#FBEFD8" mask="url(#mask-2)"></path>
            </g>
            <g id="Scribble" transform="translate(361.000000, 186.000000) rotate(180.000000) translate(-361.000000, -186.000000) translate(338.000000, 178.000000)">
                <mask id="mask-4" fill="white">
                    <use xlink:href="#path-3"></use>
                </mask>
                <g id="Clip-2"></g>
                <path d="M0.273380519,3.19563861 C2.30070781,6.9886613 5.68076805,15.9194836 10.8577775,15.9995154 C12.6523638,16.0261927 14.0606238,14.9481884 15.1439916,13.5743091 C16.0170655,12.4659898 17.6958721,5.62205753 18.488609,5.35164703 C21.3724703,4.37065107 21.4728915,9.95226342 22.6425034,11.5771517 C23.6833398,13.0225746 25.4034963,14.2072879 27.0527673,14.7468963 C28.568537,15.2440636 30.3276806,15.4247415 31.7430291,14.4995253 C32.4447962,14.0411613 33.0296022,13.1244333 33.3911186,12.4065722 C33.6191338,11.8839403 33.7762635,11.3370562 33.8636891,10.7634949 C34.0704386,7.14144929 36.8231616,6.49634441 42.1218579,8.8293929 C43.4875865,11.1709296 47.0637635,9.03917324 45.6921278,6.68914832 C43.2005,2.41593477 38.1652617,0.190807973 33.7467279,3.13500845 C31.3330742,4.74292024 31.5457309,6.873464 30.0122398,8.91306251 C26.4136157,13.6955694 25.5476303,5.9919015 24.5398738,3.58367162 C22.9532185,-0.206925864 18.9151039,-1.25218979 15.9839856,1.71990056 C14.4044188,3.32296194 13.9791054,5.54445093 13.3151439,7.59981329 C10.8223347,15.3059064 5.27317602,3.7279714 3.84365037,1.05296882 C2.56298441,-1.34192242 -1.00846686,0.795896951 0.273380519,3.19563861" id="Fill-1" fill="#FBEFD8" mask="url(#mask-4)"></path>
            </g>
            <g id="Circle-lines" transform="translate(250.014444, 56.180901) rotate(90.000000) translate(-250.014444, -56.180901) translate(194.514444, -1.319099)">
                <g id="Group-3">
                    <mask id="mask-6" fill="white">
                        <use xlink:href="#path-5"></use>
                    </mask>
                    <g id="Clip-2"></g>
                    <path d="M93.4659402,57.1766427 C93.4659402,79.4247196 75.5058056,97.4607635 53.3501069,97.4607635 C31.1956667,97.4607635 13.2342736,79.4247196 13.2342736,57.1766427 C13.2342736,34.927302 31.1956667,16.891258 53.3501069,16.891258 C75.5058056,16.891258 93.4659402,34.927302 93.4659402,57.1766427 M0.000755050505,76.5977416 C7.90739226,98.4995547 28.8097071,114.148401 53.3501069,114.148401 C84.682186,114.148401 110.082085,88.6411481 110.082085,57.1766427 C110.082085,25.7121372 84.682186,0.204884412 53.3501069,0.204884412 C28.933032,0.204884412 8.1188064,15.6957635 0.120304714,37.4244449" id="Fill-1" fill="#99C9AF" mask="url(#mask-6)"></path>
                </g>
                <g id="Group" transform="translate(16.000000, 11.000000)" fill="#FBEFD8" stroke="#FBEFD8">
                    <path d="M0.917500615,31.82587 C19.729989,47.5950494 39.6688462,62.6264163 60.0174059,76.3622345 C62.3616061,77.9441546 64.5579626,74.1550496 62.2313032,72.5831338 C42.1872013,59.053653 22.5452845,44.2623878 4.01846024,28.730809 C1.87096739,26.9300463 -1.24753302,30.0113514 0.917500615,31.82587" id="Fill-4"></path>
                    <path d="M4.2324462,4.67550556 C25.7026282,26.3382756 48.0798774,47.0654485 71.320344,66.816945 C73.4589681,68.6342831 76.5760722,65.54819 74.421161,63.7183272 C51.1794415,43.9668307 28.8034452,23.2396578 7.33326317,1.57563531 C5.34498174,-0.430826164 2.24416477,2.66779162 4.2324462,4.67550556" id="Fill-6"></path>
                    <path d="M30.6262605,4.73540752 C46.8111376,21.6861539 63.7802369,37.8394861 81.5082201,53.1713551 C83.656913,55.0281909 86.8064711,51.9081499 84.6438421,50.0386567 C66.9158589,34.7067877 49.9467596,18.5534554 33.7618825,1.60270911 C31.7880243,-0.464238981 28.656203,2.67225665 30.6262605,4.73540752" id="Fill-8"></path>
                </g>
            </g>
        </g>
    </g>
</svg>