<?xml version="1.0" encoding="UTF-8"?>
<svg width="139px" height="142px" viewBox="0 0 139 142" version="1.1" xmlns="http://www.w3.org/2000/svg" xmlns:xlink="http://www.w3.org/1999/xlink">
    <!-- Generator: Sketch 48.1 (47250) - http://www.bohemiancoding.com/sketch -->
    <title>Shapes</title>
    <desc>Created with Sketch.</desc>
    <defs></defs>
    <g id="HF-V3---Main-scroll" stroke="none" stroke-width="1" fill="none" fill-rule="evenodd" transform="translate(0.000000, -3570.000000)">
        <g id="Footer" transform="translate(-73.000000, 3536.000000)">
            <g id="Shapes" transform="translate(0.000000, 34.000000)">
                <rect id="Rectangle-Copy-12" stroke="#99C9AF" stroke-width="15" opacity="0.8" x="7.5" y="7.5" width="143" height="61"></rect>
                <circle id="Oval-2-Copy" stroke="#DC8F69" stroke-width="15" cx="166" cy="64" r="38"></circle>
                <path d="M144.193575,127.227821 C142.795082,128.21607 141.604997,129.550648 140.844254,131.061698 C140.214477,132.310245 140.376192,134.608807 139.577866,135.619115 C138.071184,137.530539 135.045293,136.144123 133.635412,134.399245 C132.307528,132.754737 132.492019,130.241099 131.924878,128.346219 C130.445528,123.401665 125.021245,120.927733 120.994316,125.165292 C118.772444,127.50356 118.381822,130.557647 117.37509,133.430849 C116.379746,136.270963 116.087065,137.632011 112.922235,135.891546 C110.661643,134.647411 110.157138,134.01321 108.840642,132.051051 C107.099359,129.456897 105.50157,126.787741 103.968695,124.071159 C102.65106,121.735097 98.9600871,123.820788 100.281139,126.159056 C102.786581,130.598457 108.168727,143.649743 115.326321,141.826555 C117.960452,141.154855 119.758677,138.570627 120.792741,136.312875 C121.437323,134.904399 121.673063,133.429746 122.157069,131.978255 C122.4395,131.130082 122.839232,129.225276 123.579477,128.709092 C124.775256,127.737387 126.056448,127.531134 127.636016,128.846962 C127.843285,129.443661 127.995889,130.052493 128.098384,130.673458 C128.85685,133.372393 128.539114,135.402936 131.066195,137.72466 C132.866697,139.379095 135.43022,140.76882 137.958439,140.881322 C140.189422,140.981691 142.000174,140.144546 143.103707,138.197828 C144.118412,136.406626 143.948725,134.390422 145.067063,132.620176 C147.831022,128.244747 153.543431,128.855785 156.030652,133.243347 C157.352843,135.577203 161.042676,133.492615 159.717069,131.15545 C156.645624,125.733315 149.632663,123.387326 144.193575,127.227821 Z" id="Fill-8" fill="#8A8C77"></path>
            </g>
        </g>
    </g>
</svg>