<?xml version="1.0" encoding="UTF-8"?>
<svg width="60px" height="19px" viewBox="0 0 60 19" version="1.1" xmlns="http://www.w3.org/2000/svg" xmlns:xlink="http://www.w3.org/1999/xlink">
    <!-- Generator: Sketch 48.1 (47250) - http://www.bohemiancoding.com/sketch -->
    <title>Fill 8</title>
    <desc>Created with Sketch.</desc>
    <defs></defs>
    <g id="HF-V3---Main-scroll" stroke="none" stroke-width="1" fill="none" fill-rule="evenodd" transform="translate(-27.000000, -3693.000000)">
        <path d="M71.1935749,3697.22782 C69.7950825,3698.21607 68.6049972,3699.55065 67.8442538,3701.0617 C67.2144766,3702.31025 67.3761915,3704.60881 66.5778664,3705.61912 C65.0711844,3707.53054 62.0452931,3706.14412 60.6354122,3704.39925 C59.3075277,3702.75474 59.4920193,3700.2411 58.9248782,3698.34622 C57.4455283,3693.40166 52.0212451,3690.92773 47.9943156,3695.16529 C45.7724436,3697.50356 45.3818224,3700.55765 44.37509,3703.43085 C43.379746,3706.27096 43.0870647,3707.63201 39.9222352,3705.89155 C37.6616427,3704.64741 37.1571377,3704.01321 35.8406415,3702.05105 C34.099359,3699.4569 32.5015699,3696.78774 30.9686946,3694.07116 C29.6510596,3691.7351 25.9600871,3693.82079 27.2811387,3696.15906 C29.7865812,3700.59846 35.1687274,3713.64974 42.3263213,3711.82656 C44.9604525,3711.15485 46.7586769,3708.57063 47.7927414,3706.31288 C48.4373234,3704.9044 48.6730628,3703.42975 49.1570688,3701.97826 C49.4395005,3701.13008 49.8392324,3699.22528 50.5794768,3698.70909 C51.7752562,3697.73739 53.0564485,3697.53113 54.6360161,3698.84696 C54.8432845,3699.44366 54.9958888,3700.05249 55.0983841,3700.67346 C55.8568499,3703.37239 55.5391143,3705.40294 58.0661947,3707.72466 C59.8666969,3709.37909 62.4302202,3710.76882 64.9584395,3710.88132 C67.1894222,3710.98169 69.0001739,3710.14455 70.1037074,3708.19783 C71.1184117,3706.40663 70.9487249,3704.39042 72.0670633,3702.62018 C74.831022,3698.24475 80.5434311,3698.85579 83.0306522,3703.24335 C84.3528426,3705.5772 88.0426762,3703.49261 86.7170693,3701.15545 C83.6456245,3695.73331 76.632663,3693.38733 71.1935749,3697.22782 Z" id="Fill-8" fill="#8A8C77"></path>
    </g>
</svg>