<?xml version="1.0" encoding="UTF-8"?>
<svg width="30px" height="28px" viewBox="0 0 30 28" version="1.1" xmlns="http://www.w3.org/2000/svg" xmlns:xlink="http://www.w3.org/1999/xlink">
    <!-- Generator: Sketch 48.1 (47250) - http://www.bohemiancoding.com/sketch -->
    <title>Group 9</title>
    <desc>Created with Sketch.</desc>
    <defs>
        <polygon id="path-1" points="29.5034699 27.6923077 0.0155722104 27.6923077 0.0155722104 0.240529578 29.5034699 0.240529578"></polygon>
    </defs>
    <g id="HF-V3---Main-scroll" stroke="none" stroke-width="1" fill="none" fill-rule="evenodd" transform="translate(-357.000000, -2582.000000)">
        <g id="Details-Copy" transform="translate(355.000000, 2384.000000)">
            <g id="Group-9" transform="translate(2.000000, 198.000000)">
                <path d="M18.2815345,10.0679895 C16.6688593,10.4540707 15.6122369,11.8867289 14.8257148,13.3235449 C12.9392812,10.8247086 9.47553534,8.79154567 8.02321311,12.7610543 C6.33188572,17.3827432 11.4967143,21.6628988 15.0744753,23.7091291 C15.5146838,23.9603789 15.934772,23.8386148 16.2109693,23.5659821 C16.2829147,23.5101488 16.3512019,23.4471878 16.4121726,23.3675957 C18.5022484,20.6020664 23.4658736,16.0486842 22.0611086,12.090461 C21.5788303,10.7326431 19.7180043,9.72348628 18.2815345,10.0679895" id="Fill-10" fill="#E95741"></path>
                <g id="Group-14">
                    <mask id="mask-2" fill="white">
                        <use xlink:href="#path-1"></use>
                    </mask>
                    <g id="Clip-13"></g>
                    <path d="M27.35952,17.4763797 L27.35952,21.9902259 C27.35952,24.3758887 27.09792,25.5531064 24.46692,25.5531064 L13.79292,25.5531064 L8.45532,25.5531064 C6.85332,25.5531064 4.17492,26.0492111 3.13752,24.8808314 C2.11752,23.7318953 2.48652,21.6225663 2.44212,20.1230573 C2.38992,18.3725499 2.33832,16.6214534 2.28672,14.8703568 C2.23872,13.2636137 1.82472,11.2073126 2.13072,9.6182455 C2.60412,7.1565761 4.47492,7.63088052 6.62952,7.58079869 C9.90372,7.50479214 13.17792,7.43232079 16.45212,7.36279542 C18.18552,7.32567594 19.91952,7.29032406 21.65292,7.25497218 C23.00892,7.22786907 25.81692,6.71998036 27.28752,7.26027496 C28.02252,10.3241047 27.35952,14.3931064 27.35952,17.4763797 M16.08012,2.48718167 C17.39232,2.44299182 18.70332,2.39939116 20.01492,2.35520131 C20.08572,3.29909656 20.09652,4.23592144 20.04372,5.19454664 C20.03952,5.2676072 20.04492,5.33536498 20.05272,5.39958756 C18.66012,5.42845827 17.26752,5.45615057 15.87432,5.48561047 C13.77072,5.53097872 11.66652,5.57811457 9.56232,5.62525041 C9.47712,4.66426841 9.44112,3.63199345 9.67632,2.70459574 C11.68032,2.30335188 14.08512,2.55376105 16.08012,2.48718167 M29.28312,19.7335974 L29.28312,12.9625336 C29.28312,10.8461342 29.63352,8.3868216 29.03832,6.347018 C29.02992,6.3193257 29.01732,6.29693617 29.00772,6.27101146 C28.99692,6.24037316 28.98492,6.20973486 28.97112,6.17968576 C28.95852,6.15552864 28.94592,6.13254992 28.93212,6.11074959 C28.91472,6.08128969 28.89552,6.05241899 28.87332,6.02413748 C28.85052,5.99467758 28.82532,5.96757447 28.79952,5.94164975 C28.78212,5.92456301 28.76532,5.90747627 28.74612,5.89156792 C28.71912,5.8691784 28.69092,5.84914566 28.66212,5.83029133 C28.63932,5.81497218 28.62132,5.79729624 28.59672,5.78256628 C26.91972,4.79624877 24.69972,5.30590507 22.80852,5.34302455 C22.58532,5.34773813 22.36212,5.35245172 22.13832,5.3571653 C22.14852,5.30413748 22.16052,5.25228805 22.16412,5.19454664 C22.23672,3.87356465 22.19292,2.59441571 22.02972,1.28227169 C21.96252,0.738441899 21.59892,0.219947627 20.97012,0.241158756 C17.58372,0.354284779 14.19732,0.468 10.81212,0.581126023 C9.71592,0.617656301 8.56572,0.473302782 7.88412,1.41778723 C7.16412,2.41529951 7.30212,4.3083928 7.43832,5.64410475 C5.60352,5.59107692 3.35892,5.35952209 1.75092,5.83441571 C0.82032,6.11016039 0.38052,6.7076072 0.18972,7.61615057 C-0.26088,9.75729624 0.29772,12.6926809 0.36252,14.8703568 C0.43152,17.2053486 0.50052,19.5397512 0.57012,21.8741538 C0.60732,23.1273781 0.21732,25.6308805 1.14612,26.736216 C2.03892,27.7985401 3.71232,27.4420753 4.89732,27.4420753 L12.01332,27.4420753 L19.72212,27.4420753 C21.96372,27.4420753 25.24872,28.0053486 27.43152,27.4420753 C30.44532,26.6643339 29.28312,21.9961178 29.28312,19.7335974" id="Fill-12" fill="#E95741" mask="url(#mask-2)"></path>
                </g>
            </g>
        </g>
    </g>
</svg>