<?xml version="1.0" encoding="UTF-8"?>
<svg width="214px" height="197px" viewBox="0 0 214 197" version="1.1" xmlns="http://www.w3.org/2000/svg" xmlns:xlink="http://www.w3.org/1999/xlink">
    <!-- Generator: Sketch 48.1 (47250) - http://www.bohemiancoding.com/sketch -->
    <title>Page 1</title>
    <desc>Created with Sketch.</desc>
    <defs></defs>
    <g id="7.0-Logos" stroke="none" stroke-width="1" fill="none" fill-rule="evenodd" transform="translate(-349.000000, -655.000000)">
        <g id="Page-1" transform="translate(349.000000, 655.000000)">
            <path d="M22.272019,132.007519 C22.6856986,132.218229 23.1514134,132.287212 23.6639599,132.213212 C24.1778072,132.139213 24.6201062,131.971146 24.9921577,131.707758 C25.3629083,131.444369 26.1109139,130.693085 27.2348736,129.448889 C28.3614351,128.207201 29.1406618,127.222631 29.5777573,126.493923 C30.0148527,125.768978 30.4571517,124.620103 30.905955,123.052316 C31.3521567,121.484528 31.5876158,120.583991 31.6097308,120.350704 C31.6305448,120.119926 31.6305448,119.268304 31.6097308,117.793329 C31.5668017,116.781165 31.380776,116.09761 31.0529544,115.740154 C30.3322673,115.002667 29.5023063,114.783177 28.5630714,115.076667 C27.9295432,115.328767 27.0007153,116.140254 25.7778888,117.508619 C24.5550622,118.878238 23.954056,119.76247 23.9761709,120.16257 C23.9761709,120.330637 23.921534,120.487415 23.8122601,120.635414 C23.2437759,121.224903 22.6661854,122.467845 22.0755862,124.362986 C21.3327841,126.806226 21.0049625,128.742758 21.0934223,130.176343 C21.1142364,131.017931 21.507102,131.627487 22.272019,132.007519 M27.7435174,112.707426 C28.7699112,112.117938 29.4801913,111.897193 29.8743577,112.043938 C32.5593727,112.612105 34.1659586,114.2564 34.690213,116.973063 C35.0609636,118.700137 35.0986891,120.267925 34.8046904,121.678934 C34.5093908,123.089943 33.6625183,124.899797 32.2653739,127.112259 C30.561222,130.355698 28.5682749,132.623346 26.2852317,133.917711 C24.0034894,135.214585 22.1510372,135.345025 20.7317779,134.314048 C19.005511,133.092428 18.1118069,132.081518 18.0454621,131.281319 C17.9140733,130.122411 18.067577,128.490657 18.5046725,126.384805 C18.6347604,126.259382 18.6893974,126.095078 18.6672824,125.894401 C18.6464683,125.696233 18.6672824,125.490539 18.7336273,125.279828 C18.7986712,125.069118 18.897538,124.758069 19.0289269,124.34919 C19.1590148,123.936548 19.2682887,123.520144 19.3567484,123.098722 C20.3389123,120.235315 21.5513319,117.886142 22.9927061,116.05622 C24.4770095,114.581246 26.0614805,113.464981 27.7435174,112.707426" id="Fill-1" fill="#FBEFD8"></path>
            <path d="M37.2683722,129.938547 C37.5603896,129.938547 38.1083883,129.77431 38.9111256,129.448344 C39.7151056,129.123632 40.2891994,128.81271 40.6334072,128.518087 C40.977615,128.22221 41.2435373,127.975228 41.4324167,127.775887 C41.6188108,127.575293 41.7865655,127.350878 41.9319529,127.095119 C42.245095,126.613693 42.2239703,126.087132 41.8698215,125.519199 C41.264662,124.782014 40.1475399,125.203262 38.5209406,126.779183 C37.8536497,127.497562 37.4249432,128.202151 37.2385491,128.895455 C37.0496697,129.591268 37.0596107,129.938547 37.2683722,129.938547 M33.2621413,133.822559 L33.4820864,132.684185 C33.5864671,132.116251 33.9928063,130.771014 34.7035891,128.643459 C35.4118868,126.517156 36.0170463,124.800819 36.5178252,123.495701 C37.1018601,122.129151 37.3951202,121.223968 37.3951202,120.780153 C37.3951202,120.674841 37.5081992,120.496813 37.7380853,120.244816 C37.9667288,120.055505 38.2438347,119.975267 38.5681604,120.00661 C38.8912436,120.039207 39.1782905,120.14828 39.4280586,120.340099 C39.7623254,120.885465 39.8778897,121.475965 39.773509,122.107838 C39.773509,122.529086 39.5423803,123.074453 39.0838508,123.748952 C39.0428441,123.811638 39.0316605,123.834205 39.0540278,123.811638 C40.2842289,123.074453 41.3417049,122.771054 42.2289408,122.896425 C43.1161768,123.02305 43.7996219,123.397911 44.2805187,124.017247 C44.7589303,124.63909 45,125.37126 45,126.21125 C45,126.571066 44.8322453,127.102642 44.4979785,127.808484 C44.1649544,128.513072 43.892819,128.959395 43.6853002,129.14996 C43.5585522,129.14996 43.3932827,129.370614 43.1845213,129.810668 C42.9347532,130.149171 42.4588269,130.501465 41.7592277,130.868804 C41.0608711,131.23865 40.5861874,131.379067 40.3364193,131.295068 C40.2320386,131.359007 40.1798482,131.453036 40.1798482,131.580915 C40.1798482,131.7276 39.8306699,131.890583 39.1310707,132.06861 C38.4327141,132.249145 37.8946564,132.338159 37.5193829,132.338159 C37.1428668,132.338159 36.862033,132.25416 36.6731536,132.084909 C36.5277662,132.232847 36.4556938,132.390815 36.4556938,132.558813 C36.4556938,132.728065 36.3513131,133.037733 36.1425517,133.490324 C35.9337903,133.941662 35.7672782,134.168584 35.6405302,134.168584 C35.5162675,134.273896 35.5162675,134.390492 35.6405302,134.515864 C35.6405302,134.958425 35.5796415,135.285645 35.4541361,135.496269 C35.4541361,136.042889 35.3485128,136.546883 35.140994,137.012012 C35.140994,137.264009 35.1037152,137.510991 35.0304002,137.752958 C34.9583278,137.994925 34.8787996,138.115282 34.7967862,138.115282 C34.6712808,138.159162 34.6029363,138.447516 34.5929953,138.985361 C34.5818117,139.521951 34.4264832,139.989587 34.1232821,140.389522 C33.8213237,140.789458 33.5330341,140.988798 33.2621413,140.988798 C32.8657432,141.032679 32.6159751,140.947426 32.5115944,140.736802 C32.0729469,140.104929 31.9163758,139.473056 32.0418812,138.842437 C32.2717673,137.957314 32.386089,137.346754 32.386089,137.012012 L32.5426601,136.000263 C32.7725461,135.621641 32.8881105,135.127677 32.8881105,134.515864 C32.8881105,134.263867 33.0123732,134.031929 33.2621413,133.822559" id="Fill-3" fill="#FBEFD8"></path>
            <path d="M52.2149299,123.392239 C51.9406313,123.392239 51.5473447,123.626263 51.0325651,124.09561 C50.5165331,124.564956 50.0693888,125.105811 49.6898798,125.715572 C49.7337174,125.976898 50.0794088,126.109511 50.7319639,126.109511 C51.3832665,126.109511 51.7990982,126.061406 51.9782064,125.962596 C52.1560621,125.862486 52.4616733,125.590759 52.8925351,125.144814 C53.3233968,124.694969 53.5488477,124.385539 53.5713928,124.210021 C53.5713928,123.730273 53.2332164,123.455946 52.5606212,123.392239 L52.2149299,123.392239 Z M52.4353707,121 C53.6766032,121 54.5809118,121.312031 55.1482966,121.934793 C55.7156814,122.556256 56,123.141314 56,123.687369 L56,123.948695 C56,124.405041 55.7056613,125.159116 55.1157315,126.208321 C54.8213928,126.754375 54.370491,127.239324 53.7592685,127.663166 C53.1505511,128.089609 52.5405812,128.313231 51.9306112,128.336634 C51.3206413,128.358736 50.7369739,128.318432 50.1796092,128.222222 C49.6222445,128.123412 49.2803106,128.075308 49.1550601,128.075308 C49.0285571,128.075308 48.9120741,128.150715 48.8068637,128.30283 C48.6603206,128.544654 48.5876754,128.991899 48.5876754,129.647165 C48.6490481,130.255626 48.8118737,130.682068 49.0761523,130.923892 C49.3379259,131.163116 49.6598196,131.281428 50.0380762,131.281428 C50.4163327,131.281428 50.7745491,131.206021 51.1102204,131.053905 C51.4471443,130.90049 51.8404309,130.628763 52.2925852,130.236124 C52.745992,129.842184 53.0979459,129.647165 53.3496994,129.647165 C53.6027054,129.647165 53.8557114,129.775878 54.1074649,130.037204 C54.3592184,130.30113 54.4957415,130.553355 54.5170341,130.791279 C54.4544088,131.294429 53.9646794,131.953595 53.0503507,132.772677 C52.136022,133.591759 51.0989479,134 49.9441383,134 C48.7868236,134 47.8399299,133.651565 47.1047094,132.953395 C46.3682365,132.253925 46,131.261926 46,129.973497 C46,129.471647 46.0263026,128.935994 46.0789078,128.369137 C46.131513,127.80098 46.3156313,127.10281 46.6312625,126.272027 C46.9468938,125.443844 47.4504008,124.548055 48.1455411,123.587259 C48.8394289,122.627763 49.5846693,121.955596 50.38502,121.574657 C51.1841182,121.193719 51.867986,121 52.4353707,121 Z" id="Fill-5" fill="#FBEFD8"></path>
            <path d="M66.5442211,130.744464 L66.7088442,128.582329 L66.7088442,128.072404 C66.6422111,127.650832 66.499799,127.438784 66.2803015,127.438784 C65.8857286,127.438784 65.1514573,127.808606 64.0748744,128.550775 C62.1451256,129.886173 60.6961809,131.155938 59.7319598,132.363855 C59.5346734,132.575904 59.3752764,132.698336 59.2550754,132.729891 C59.1335678,132.762708 58.9584925,132.767757 58.7285427,132.746299 C58.498593,132.724842 58.1863317,132.512794 57.7904523,132.110155 C57.3958794,131.707516 57.1332663,131.349053 57,131.030981 C57,130.182788 57.438995,128.931956 58.3169849,127.278485 C58.4267337,126.940218 58.7285427,126.203098 59.2224121,125.06965 C59.7149749,123.93494 59.9945729,123.060241 60.061206,122.446816 L60.0285427,122.413999 C60.0285427,122.201951 60.1382915,122.095927 60.3577889,122.095927 C60.4009045,122.032817 60.620402,122 61.0162814,122 C61.4095477,122 61.8158794,122.150201 62.2326633,122.446816 C62.6507538,122.742169 62.8584925,123.156168 62.8584925,123.686288 C62.8584925,124.216408 62.5723618,125.033046 62.0027136,126.13494 C61.4317588,127.236833 61.1469347,127.808606 61.1469347,127.850258 C61.498392,127.618015 62.1673367,127.130809 63.1537688,126.38864 C65.4140704,124.630407 66.8068342,123.75066 67.3333668,123.75066 C67.618191,123.75066 68.0192965,123.903385 68.5340704,124.21136 C69.0501508,124.51681 69.3506533,124.798279 69.4394975,125.051979 L69.3075377,126.516122 L69.3741709,128.264257 C69.3741709,128.942054 69.3297487,129.420425 69.2422111,129.69432 L69.3415075,129.886173 C69.2526633,129.97074 69.3415075,130.288812 69.6041206,130.837866 C69.8680402,131.390706 70,131.734022 70,131.871601 C70,132.00918 69.8392965,132.221228 69.521809,132.506483 C69.2030151,132.793001 68.9025126,132.958348 68.6176884,133 C67.2340704,132.958348 66.5442211,132.204819 66.5442211,130.744464" id="Fill-7" fill="#FBEFD8"></path>
            <path d="M82.1308,133.778096 C82.1094257,133.861276 82.0993672,133.958319 82.0993672,134.064184 C82.4790747,134.231805 82.8059751,134.29608 83.0813258,134.25449 C83.3554193,134.21164 83.7351267,134.178872 84.2204481,134.158707 C85.3394534,134.117117 86.0686929,133.958319 86.4056518,133.682313 C87.5661483,132.91983 88.6750952,132.084249 89.731235,131.176832 C89.7727263,131.070966 89.99527,130.942415 90.3963517,130.79496 C90.5007084,130.689094 90.8238369,130.356375 91.3619653,129.79554 C91.901351,129.234705 92.2119064,128.92089 92.2961461,128.857875 C92.3175204,128.75201 92.3539824,128.608335 92.4067894,128.429372 C92.4595964,128.249149 92.4859999,128.119338 92.4859999,128.032377 C92.7399763,127.757631 93.1196838,127.097233 93.6263794,126.048661 C94.1330751,125.00261 94.4813498,124.096452 94.6712035,123.33649 C95.4306184,120.013073 94.7441275,117.430713 92.6129881,115.589411 C92.1691579,115.2088 91.446205,114.796681 90.4428721,114.351794 C89.4395393,113.908168 88.8812939,113.701478 88.7643641,113.734246 C88.649949,113.765753 88.4110602,114.25097 88.052727,115.193676 C87.6931366,116.133862 87.1864409,117.531537 86.53264,119.382921 C85.8775819,121.234306 85.4035762,122.572747 85.1068512,123.398245 C85.0238688,123.737266 84.8956232,124.150645 84.7271438,124.635862 C84.3474364,125.758791 84.1575827,126.371298 84.1575827,126.477164 C83.545273,127.429952 83.0913843,129.036838 82.7959166,131.301601 C82.7531681,131.493167 82.7053903,131.693556 82.6538407,131.905286 C82.6010337,132.117017 82.5582851,132.29598 82.5268524,132.444696 C82.4954197,132.593411 82.4639869,132.742127 82.4312969,132.889583 C82.3998642,133.037038 82.3684314,133.164328 82.3369987,133.270194 C82.305566,133.376059 82.2779052,133.471842 82.2577882,133.555022 C82.2150397,133.702478 82.1722912,133.778096 82.1308,133.778096 M84.6491906,111.322027 C85.8826111,111.035938 87.0330492,110.940155 88.1005048,111.035938 C89.1667031,111.129201 90.5007084,111.464441 92.1062924,112.035358 C93.2039235,112.45882 94.3329873,113.261632 95.4947412,114.447577 C96.6552377,115.632261 97.3945356,116.882481 97.7113776,118.191936 C97.8371085,118.659508 97.9263775,119.25059 97.9791844,119.971483 C98.0319914,120.689855 97.9842137,121.192716 97.8371085,121.477544 C97.6900033,121.763633 97.7113776,121.937554 97.9012313,122.00183 C97.8584827,122.08627 97.7692138,122.361016 97.6321671,122.827328 C97.4951203,123.292379 97.3945356,123.609976 97.3316701,123.778856 C97.2675474,124.5426 97.0198574,125.477744 96.587343,126.58807 C96.1535713,127.700917 95.7474603,128.584389 95.3677529,129.238486 C95.242022,129.261172 95.1665834,129.302762 95.1464665,129.367037 C95.1464665,129.472903 95.0295367,129.67203 94.7969345,129.970722 C94.734069,130.012312 94.6020515,130.164809 94.4021393,130.430732 C94.2009698,130.694136 94.0576366,130.859235 93.9746541,130.92225 C93.9532799,131.070966 93.8904144,131.190695 93.7848004,131.285218 C93.6791864,131.382261 93.5836309,131.428892 93.4993912,131.428892 C93.4993912,131.493167 93.4679585,131.534757 93.405093,131.554922 C93.0241283,132.106935 92.2684853,132.861856 91.1406788,133.824727 C90.011615,134.788858 89.0548026,135.429092 88.2752708,135.746688 C88.1683995,135.829868 87.7245693,136.052942 86.9437802,136.412128 C86.8180493,136.539418 86.1994531,136.650325 85.0917635,136.744848 C83.984074,136.841891 83.3227292,136.908687 83.1127586,136.952798 C82.3105952,137.078828 81.2129641,136.952798 79.818608,136.570926 C79.5017661,136.507911 79.2704212,136.390703 79.1220587,136.221822 C78.9749535,136.052942 78.8856845,135.952117 78.8542518,135.92061 C78.8215617,135.889102 78.7574389,135.803402 78.6631407,135.666029 C78.5688425,135.528656 78.4896321,135.429092 78.4267666,135.364817 C78.0671761,134.899765 77.9351586,134.349013 78.0294568,133.71382 C78.1250123,133.078628 78.4468835,132.719442 78.9963277,132.635001 C79.1434329,132.613576 79.3446024,132.656427 79.5973216,132.761032 C79.5973216,132.16995 79.6601871,131.635582 79.7884326,131.159187 C79.9141636,130.684053 80.346678,129.349393 81.0859759,127.158987 C81.8252738,124.971102 82.4111799,123.124759 82.8424371,121.621218 C83.2762088,120.118938 83.6622028,119.050202 83.9991617,118.416269 C84.0419102,118.310404 84.1148341,118.065905 84.2204481,117.684034 C84.4744246,116.75393 84.7799508,115.83391 85.1395413,114.922711 L85.3608277,113.87666 L85.012553,113.716602 C84.6328456,113.845152 84.3474364,113.845152 84.1575827,113.716602 C83.9677289,113.780877 83.7087232,113.675012 83.3818228,113.399005 C83.053665,113.12552 82.8700979,112.882281 82.8286067,112.670551 L82.7330511,112.128621 C82.7745424,111.8753 83.4145128,111.606855 84.6491906,111.322027" id="Fill-9" fill="#FBEFD8"></path>
            <path d="M104.21493,123.392239 C103.940631,123.392239 103.547345,123.626263 103.032565,124.09561 C102.515281,124.564956 102.069389,125.105811 101.68988,125.715572 C101.732465,125.976898 102.078156,126.109511 102.731964,126.109511 C103.383267,126.109511 103.799098,126.061406 103.978206,125.962596 C104.156062,125.862486 104.461673,125.590759 104.892535,125.144814 C105.323397,124.694969 105.548848,124.385539 105.571393,124.210021 C105.571393,123.730273 105.233216,123.455946 104.560621,123.392239 L104.21493,123.392239 Z M104.435371,121 C105.676603,121 106.580912,121.312031 107.148297,121.934793 C107.715681,122.556256 108,123.141314 108,123.687369 L108,123.948695 C108,124.405041 107.705661,125.159116 107.115731,126.208321 C106.821393,126.754375 106.370491,127.239324 105.759269,127.663166 C105.150551,128.089609 104.540581,128.313231 103.930611,128.336634 C103.320641,128.358736 102.736974,128.318432 102.179609,128.222222 C101.620992,128.123412 101.280311,128.075308 101.153808,128.075308 C101.028557,128.075308 100.912074,128.150715 100.806864,128.30283 C100.660321,128.544654 100.586423,128.991899 100.586423,129.647165 C100.649048,130.255626 100.811874,130.682068 101.076152,130.923892 C101.337926,131.163116 101.658567,131.281428 102.036824,131.281428 C102.416333,131.281428 102.773297,131.206021 103.11022,131.053905 C103.447144,130.90049 103.840431,130.628763 104.292585,130.236124 C104.745992,129.842184 105.097946,129.647165 105.349699,129.647165 C105.602705,129.647165 105.855711,129.775878 106.107465,130.037204 C106.359218,130.30113 106.495741,130.553355 106.517034,130.791279 C106.454409,131.294429 105.964679,131.953595 105.050351,132.772677 C104.136022,133.591759 103.098948,134 101.942886,134 C100.785571,134 99.8386774,133.651565 99.1034569,132.953395 C98.3682365,132.253925 98,131.261926 98,129.973497 C98,129.471647 98.0250501,128.935994 98.0776553,128.369137 C98.1302605,127.80098 98.3156313,127.10281 98.6312625,126.272027 C98.9456413,125.443844 99.4504008,124.548055 100.144289,123.587259 C100.838176,122.627763 101.584669,121.955596 102.38502,121.574657 C103.184118,121.193719 103.867986,121 104.435371,121 Z" id="Fill-11" fill="#FBEFD8"></path>
            <path d="M109.82391,122.171185 C109.907207,122.107214 110.093993,122.060804 110.37922,122.029446 C110.66571,121.996834 110.861331,121.991816 110.967344,122.011886 C111.433048,122.18122 111.857103,123.466905 112.23951,125.867686 C112.281158,126.245238 112.322806,126.60523 112.366979,126.94139 C112.472992,127.5096 112.534834,127.82569 112.557551,127.889661 C112.579006,127.952377 112.610558,128.104151 112.652206,128.34749 C112.693854,128.589575 112.748123,128.70999 112.811227,128.70999 C113.04471,128.70999 113.806999,127.784297 115.10062,125.929148 C115.842716,124.878022 116.456081,124.119155 116.944502,123.656308 C117.430399,123.192207 117.790088,122.928798 118.024833,122.867336 C118.532185,122.780788 118.845178,122.965174 118.96255,123.417986 C119.07866,123.870798 118.924688,124.392598 118.501895,124.983386 C118.374426,125.150211 118.241909,125.378499 118.104343,125.661976 C117.965516,125.946709 117.829212,126.21388 117.690385,126.468508 C117.552819,126.720628 117.171674,127.26626 116.54695,128.109168 C115.920964,128.952075 115.549916,129.432483 115.433806,129.547881 C115.317695,129.663279 115.17382,129.794983 115.004702,129.941739 C114.475896,130.385771 114.114944,130.753289 113.924371,131.046801 C113.435951,131.532226 112.950054,131.83201 112.461634,131.948662 C111.974475,132.06406 111.614786,131.985037 111.381303,131.71034 C111.14782,131.543514 110.829779,130.82604 110.428441,129.562933 C110.024579,128.30108 109.759545,127.283821 109.633338,126.514919 C109.505869,125.746016 109.315296,124.983386 109.06162,124.224518 C108.955607,123.867035 108.985896,123.476939 109.156276,123.055485 C109.325393,122.634032 109.547517,122.340519 109.82391,122.171185" id="Fill-13" fill="#FBEFD8"></path>
            <path d="M122.371283,119.69113 C122.233209,119.418291 122.164805,119.193754 122.164805,119.017518 C122.164805,118.842588 122.211674,118.688545 122.307946,118.556695 C122.402952,118.42615 122.567628,118.097177 122.801975,117.569776 C123.269402,116.628548 123.578486,116.146838 123.726695,116.124645 C123.982576,115.94841 124.33853,115.958853 124.795823,116.157281 C125.253116,116.353099 125.588802,116.628548 125.801614,116.978408 C126.18417,117.855669 126.01316,118.742069 125.291118,119.642828 C124.9719,120.081459 124.566543,120.359519 124.078848,120.480926 C123.58862,120.601027 123.217465,120.568391 122.961584,120.381712 C122.706969,120.196338 122.509358,119.966579 122.371283,119.69113 M119.165165,130.920595 L119.291839,130.228708 C119.271571,130.096857 119.356443,129.736554 119.54772,129.142575 C120.016414,128.048609 120.610515,126.26145 121.33509,123.78371 C121.33509,123.521315 121.504833,123.380326 121.845586,123.358134 C122.079933,123.270669 122.37635,123.372494 122.738638,123.66883 C123.099659,123.963862 123.398609,124.300667 123.631689,124.67272 C123.907839,124.956002 123.881237,125.479487 123.553151,126.234036 C123.222532,126.991196 122.993252,127.73008 122.866578,128.454603 C122.610697,129.045972 122.440954,129.47938 122.354816,129.752219 C122.271211,130.027669 122.174939,130.476743 122.068532,131.100747 C121.962126,131.724751 121.845586,132.134662 121.717646,132.33309 C121.526368,133.188159 121.190682,133.712949 120.711854,133.911377 C120.234293,134.1085 119.813736,133.976649 119.451448,133.517132 C119.218368,133.275624 119.07396,132.842215 119.020757,132.218211 C118.967554,131.592901 119.016957,131.159492 119.165165,130.920595" id="Fill-15" fill="#FBEFD8"></path>
            <path d="M135.104283,125.925792 C134.854647,126.313056 134.626999,126.504771 134.421339,126.504771 C134.214387,126.504771 134.11091,126.564842 134.11091,126.682427 C134.11091,126.802568 133.997087,126.866473 133.769439,126.876698 C133.540497,126.886922 133.301208,126.839633 133.051572,126.732273 C132.803229,126.624912 132.654481,126.494546 132.611797,126.345009 C132.611797,126.237648 132.688111,125.84655 132.840739,125.169158 C132.992073,124.4956 133.008888,124.053378 132.888596,123.851438 C132.769599,123.646942 132.503147,123.631605 132.091829,123.801592 C131.2873,124.252761 130.684551,124.836852 130.282287,125.556422 C129.881316,126.274713 129.533377,127.188554 129.241056,128.292831 C128.947442,129.398386 128.81163,130.079613 128.833618,130.336511 C128.877596,130.744224 128.974605,130.990897 129.127232,131.077808 C129.77784,131.250351 130.353427,131.205618 130.853993,130.94872 C131.353267,130.691822 132.014222,130.252156 132.840739,129.627166 C132.883423,129.607994 132.975258,129.490409 133.117538,129.273133 C133.258524,129.060968 133.394337,128.921656 133.523682,128.856472 C133.698299,128.576569 133.958283,128.437256 134.306222,128.437256 L134.990459,128.437256 C135.381082,128.566344 135.696685,128.82452 135.935974,129.210506 C136.021342,129.403499 136.021342,129.532587 135.935974,129.595214 L135.772999,129.757532 C135.858367,129.930075 135.479385,130.438759 134.632172,131.28486 C133.78496,132.133517 133.243003,132.556568 133.003714,132.556568 C132.763131,132.556568 132.645427,132.621751 132.645427,132.750839 C132.645427,132.836472 132.314303,133.034577 131.650761,133.346433 C130.988513,133.657011 130.450436,133.855116 130.039117,133.940749 C129.040571,134.113292 128.122219,133.908796 127.285354,133.329818 C126.449783,132.750839 126.030704,131.967365 126.030704,130.980672 C125.922053,129.995258 126.101843,128.759337 126.56878,127.279299 C127.037011,125.797982 127.63976,124.608073 128.377029,123.707013 C129.484226,122.395684 130.341786,121.619878 130.951002,121.371927 C131.558926,121.125254 132.210827,121 132.905411,121 C134.100563,121.279904 134.698139,121.644162 134.698139,122.096609 L134.861114,122.256371 C135.056425,122.256371 135.272432,122.591233 135.511721,123.254566 C135.75101,123.921734 135.782053,124.412523 135.610024,124.734604 C135.522069,125.144874 135.35392,125.541085 135.104283,125.925792" id="Fill-17" fill="#FBEFD8"></path>
            <path d="M143.21493,123.392239 C142.940631,123.392239 142.547345,123.626263 142.032565,124.09561 C141.516533,124.564956 141.069389,125.105811 140.68988,125.715572 C140.733717,125.976898 141.079409,126.109511 141.731964,126.109511 C142.383267,126.109511 142.799098,126.061406 142.978206,125.962596 C143.156062,125.862486 143.461673,125.590759 143.892535,125.144814 C144.323397,124.694969 144.548848,124.385539 144.571393,124.210021 C144.571393,123.730273 144.233216,123.455946 143.560621,123.392239 L143.21493,123.392239 Z M143.435371,121 C144.676603,121 145.580912,121.312031 146.148297,121.934793 C146.715681,122.556256 147,123.141314 147,123.687369 L147,123.948695 C147,124.405041 146.705661,125.159116 146.115731,126.208321 C145.821393,126.754375 145.370491,127.239324 144.759269,127.663166 C144.150551,128.089609 143.540581,128.313231 142.930611,128.336634 C142.320641,128.358736 141.736974,128.318432 141.179609,128.222222 C140.622244,128.123412 140.280311,128.075308 140.15506,128.075308 C140.028557,128.075308 139.912074,128.150715 139.806864,128.30283 C139.660321,128.544654 139.587675,128.991899 139.587675,129.647165 C139.649048,130.255626 139.811874,130.682068 140.076152,130.923892 C140.337926,131.163116 140.65982,131.281428 141.038076,131.281428 C141.416333,131.281428 141.774549,131.206021 142.11022,131.053905 C142.447144,130.90049 142.840431,130.628763 143.292585,130.236124 C143.745992,129.842184 144.097946,129.647165 144.349699,129.647165 C144.602705,129.647165 144.855711,129.775878 145.107465,130.037204 C145.359218,130.30113 145.495741,130.553355 145.517034,130.791279 C145.454409,131.294429 144.964679,131.953595 144.050351,132.772677 C143.136022,133.591759 142.098948,134 140.944138,134 C139.786824,134 138.83993,133.651565 138.104709,132.953395 C137.368236,132.253925 137,131.261926 137,129.973497 C137,129.471647 137.026303,128.935994 137.078908,128.369137 C137.131513,127.80098 137.315631,127.10281 137.631263,126.272027 C137.946894,125.443844 138.450401,124.548055 139.145541,123.587259 C139.839429,122.627763 140.584669,121.955596 141.38502,121.574657 C142.184118,121.193719 142.867986,121 143.435371,121 Z" id="Fill-19" fill="#FBEFD8"></path>
            <path d="M160.038625,124.861607 L160.038625,124.956405 C159.995356,124.956405 159.959723,125.029998 159.926635,125.175936 C159.89482,125.32437 159.856642,125.426652 159.813373,125.490266 C159.664478,125.616247 159.589394,125.921845 159.589394,126.400824 C159.355234,126.965868 159.16307,127.680594 159.012902,128.537516 C158.862734,129.39818 158.809285,130.035571 158.852553,130.454677 C158.937818,131.166907 159.253425,131.652122 159.799374,131.914064 C160.342778,132.176005 160.74365,132.308223 161.000717,132.308223 C161.491944,132.412999 162.474399,132.265813 163.949353,131.866665 C164.183513,131.804298 164.462214,131.751909 164.782911,131.710747 C165.102336,131.668338 165.610107,131.542356 166.304952,131.332803 C166.999796,131.124498 167.399396,131.062131 167.506295,131.144455 C167.933892,131.501194 168.084059,131.866665 167.955526,132.244609 C167.868988,132.432957 167.432484,132.825869 166.640921,133.422097 C165.85063,134.019572 165.187601,134.39128 164.654378,134.538466 C164.034617,134.810386 163.115794,134.962561 161.897907,134.993744 C160.68002,135.023681 159.835007,134.946346 159.365415,134.757997 C157.870099,134.401258 156.757839,133.176371 156.032452,131.082088 C155.989183,130.684187 155.989183,130.072991 156.032452,129.244757 C156.074448,128.419019 156.13426,127.972471 156.208072,127.908857 C156.283156,127.84649 156.314971,127.731735 156.303517,127.563344 C156.294609,127.397448 156.36842,127.075634 156.528769,126.605387 C156.689118,126.13514 156.737477,125.763433 156.672574,125.490266 C156.779473,125.260756 156.886372,125.093612 156.993271,124.988836 C157.143439,124.820445 157.196889,124.637086 157.15362,124.437512 C157.110351,124.240432 157.196889,123.994706 157.410687,123.699087 L157.698297,123.22884 C157.719931,123.082901 157.886643,122.615149 158.195887,121.830572 C158.505131,121.045996 158.713839,120.569512 158.820738,120.401121 L158.820738,120.337507 C158.90473,120.130449 159.023083,119.908422 159.173251,119.680159 C159.301784,118.841947 159.973722,117.46239 161.191609,115.547724 C162.410768,113.630563 163.276142,112.43187 163.789004,111.94915 C164.664559,110.964999 165.379765,110.746715 165.937168,111.291802 C166.171328,111.542517 166.330404,111.898009 166.416942,112.359525 C166.502206,112.819793 166.428395,113.070508 166.192962,113.11167 C165.893899,113.301266 164.824908,115.028831 162.98726,118.295613 L161.737558,120.841432 C161.224697,121.909155 160.74365,123.061696 160.294419,124.296562 C160.12389,124.464953 160.038625,124.652054 160.038625,124.861607" id="Fill-21" fill="#FBEFD8"></path>
            <path d="M177.015079,123.698732 C176.225985,123.698732 174.923534,125.17693 173.111539,128.132095 C172.791326,128.62934 172.502881,129.277975 172.247474,130.085384 C172.588017,130.127231 173.250043,129.754297 174.232282,128.967812 C174.422884,128.804115 174.684645,128.586262 175.015023,128.319177 C175.346672,128.049631 175.58556,127.852702 175.735501,127.729621 C175.884171,127.60531 176.077315,127.439151 176.311121,127.232376 C176.716469,126.840979 177.079884,126.417582 177.400097,125.963415 L178.102785,124.845843 C177.74064,124.081513 177.378495,123.698732 177.015079,123.698732 M169.495173,131.788819 C169.495173,131.604198 169.356668,131.345729 169.078388,131.013411 C168.758176,130.70571 169.418932,129.093354 171.061926,126.180037 C171.190265,126.054494 171.355454,125.837873 171.558763,125.527709 C171.760802,125.217546 171.895494,125.042772 171.959029,125.002155 C171.959029,124.919691 171.990796,124.84092 172.055601,124.768302 C172.117864,124.696916 172.192834,124.659991 172.27797,124.659991 L172.535919,124.165207 C172.619784,123.978125 173.035298,123.532573 173.78373,122.831014 C174.529622,122.129455 175.128114,121.643286 175.575395,121.37374 C176.023946,121.105424 176.481392,120.982343 176.951545,121.002036 C177.420427,121.02296 177.827046,121.166964 178.16759,121.436511 C178.209522,121.499282 178.349297,121.612516 178.583103,121.777444 C178.989722,122.087607 179.89699,122.853168 181.303637,124.071666 L180.759784,125.621251 C180.269301,126.984984 180.396369,128.24656 181.143531,129.403517 C181.357006,129.83553 181.720421,130.09523 182.231236,130.177694 C182.744593,130.261389 183,130.487857 183,130.85956 C183,131.707586 182.711555,132.192523 182.135935,132.316835 C180.47261,132.544534 179.223528,131.88236 178.39123,130.334006 C178.092619,129.941379 177.900746,129.48475 177.81561,128.967812 C177.66694,129.174587 177.420427,129.444134 177.079884,129.77522 C174.177642,132.626998 171.97936,133.587026 170.486306,132.656537 C170.422772,132.533456 170.241064,132.368528 169.943724,132.161753 C169.643843,131.954978 169.495173,131.830666 169.495173,131.788819" id="Fill-23" fill="#FBEFD8"></path>
            <path d="M185.697025,122.075127 L186.043926,120.997015 C186.149124,120.912531 186.344491,120.452284 186.627522,119.615013 C186.911805,118.777742 187.168537,118.095568 187.400222,117.565969 C188.177932,115.851077 188.713938,114.5813 189.009493,113.755377 C189.134728,113.563713 189.281253,113.322871 189.45032,113.024026 C189.80724,112.411204 190.038925,112.070748 190.145375,112.010222 C190.2919,111.964828 190.612502,112.070748 191.105928,112.32546 C191.600606,112.581433 191.921208,112.824796 192.068985,113.056811 C192.19422,113.184167 192.22052,113.37457 192.146631,113.628021 C192.073995,113.881472 191.888647,114.305152 191.595597,114.899059 C191.301294,115.491706 191.122208,115.85612 191.058338,115.994825 C190.995721,116.132269 190.901795,116.334021 190.775307,116.597559 C190.64882,116.861098 190.428406,117.338998 190.112814,118.026216 C189.797221,118.715956 189.466601,119.499006 189.118447,120.375366 C188.772798,121.255509 188.467225,122.087737 188.204231,122.870787 C187.941238,123.653837 187.758394,124.183436 187.653197,124.459584 L187.495401,125.155629 L188.315691,124.235135 C189.07211,123.473521 189.797221,122.943922 190.491024,122.646338 C191.689523,122.11926 192.70017,121.8532 193.519207,121.8532 C194.339497,121.8532 195.074627,122.415584 195.727102,123.537829 C195.957534,124.00312 196.042694,124.57433 195.980076,125.252722 C195.916207,125.929852 195.738373,126.51115 195.442818,126.997877 C195.127226,127.232414 194.959411,127.475777 194.939373,127.729228 C194.916831,127.98394 194.382077,128.692594 193.330103,129.857712 C192.782825,130.428922 192.062724,130.998872 191.169798,131.571343 C190.275619,132.142554 189.660715,132.488054 189.323833,132.604062 C188.988203,132.720069 188.713938,132.789421 188.503543,132.810857 C187.977556,132.89408 187.641926,132.958389 187.495401,133 C186.716439,132.916777 186.201723,132.577582 185.948748,131.983674 C185.697025,131.710048 185.591828,131.465424 185.633155,131.253584 C185.88613,131.253584 186.033908,131.211973 186.076488,131.127489 C186.076488,130.998872 186.191704,130.957261 186.422136,130.998872 C187.515438,131.084617 189.333852,129.940935 191.87988,127.569087 C192.65759,126.555283 193.119708,125.878153 193.267485,125.537696 C193.41401,125.201023 193.402739,124.902178 193.236176,124.648727 C192.983201,124.160739 192.299418,124.289356 191.186078,125.030794 C189.586826,126.025684 188.357018,127.103797 187.495401,128.268915 L186.233031,129.824927 C186.233031,129.909411 186.111553,130.015331 185.871102,130.142687 C185.628146,130.268782 185.422761,130.33309 185.254946,130.33309 C184.919316,130.185559 184.720192,129.951022 184.656322,129.633263 C184.404599,129.465556 184.261831,129.36468 184.230523,129.333157 C184.199214,129.300372 184.140353,129.190669 184.056446,129.000266 C183.931211,128.702682 184.013866,128.046987 184.309421,127.030662 C184.835408,124.552894 185.212366,123.22007 185.445303,123.028405 C185.613118,122.732082 185.697025,122.415584 185.697025,122.075127" id="Fill-25" fill="#FBEFD8"></path>
            <path d="M62,74.2168824 L57.9467271,84.7894906 L66.054536,84.7894906 L62,74.2168824 Z M55.3662233,91.5257926 L53.2922208,97 L45,97 L58.3142878,65 L65.7324467,65 L79,97 L70.7532506,97 L68.6337767,91.5257926 L55.3662233,91.5257926 Z" id="Fill-27" fill="#FEFEFE"></path>
            <polygon id="Fill-29" fill="#FEFEFE" points="90.2074074 107 82.365131 107 86.6093948 96.8524362 76 74 83.934598 74 90.3452575 87.9158933 96.1577236 74 104 74"></polygon>
            <path d="M129,96.3101387 L121.577849,96.3101387 L121.577849,94.8383506 C119.790454,96.2180731 117.867402,97 115.484627,97 C109.849872,97 106,93.0903657 106,86.7416242 L106,74 L113.423407,74 L113.423407,85.591435 C113.423407,88.7658058 115.071378,90.2842573 117.500628,90.2842573 C118.873519,90.2842573 120.29414,89.5023304 121.577849,88.0759445 L121.577849,74 L129,74 L129,96.3101387 Z" id="Fill-31" fill="#FEFEFE"></path>
            <path d="M151.5835,85.5797399 C151.5835,82.5128907 149.344484,80.0408396 146.266636,80.0408396 C144.587694,80.0408396 142.954785,80.5452886 141.555879,82.1477299 L141.555879,89.0117499 C142.954785,90.6141912 144.587694,91.0722108 146.266636,91.0722108 C149.344484,91.0722108 151.5835,88.6465891 151.5835,85.5797399 M159,85.5797399 C159,92.1702031 153.868549,97.1594798 147.758887,97.1594798 C145.287146,97.1594798 143.234822,96.5182523 141.555879,95.4654346 L141.555879,107 L134,107 L134,74.5031942 L141.555879,74.5031942 L141.555879,75.6940452 C143.234822,74.6412275 145.287146,74 147.758887,74 C153.868549,74 159,78.9428474 159,85.5797399" id="Fill-33" fill="#FEFEFE"></path>
            <path d="M161,92.9768134 C161,90.7371142 162.801476,89 164.999397,89 C167.197319,89 169,90.7371142 169,92.9768134 C169,95.2628858 167.197319,97 164.999397,97 C162.801476,97 161,95.2628858 161,92.9768134" id="Fill-35" fill="#54B5B1"></path>
            <path d="M81.7869725,148.973575 C101.697525,146.159002 121.739961,144.620877 141.857215,144.300229 C144.710456,144.254773 144.718065,139.954902 141.857215,140.000358 C121.337971,140.327148 100.913835,141.957414 80.6076328,144.82727 C77.7911665,145.224087 78.9882598,149.367934 81.7869725,148.973575" id="Fill-37" fill="#FBEFD8"></path>
            <path d="M24.6286707,158.63508 C-9.32383048,121.840347 4.09531569,66.0024591 38.1992371,34.1954903 C69.4936123,5.00839564 117.528201,-6.04851156 155.299292,17.4581794 C175.303313,29.9079631 191.365316,49.6576861 201.618632,70.650868 C212.934436,93.8232686 212.159521,118.684848 195.640712,139.072762 C180.02279,158.346375 155.878252,171.877537 132.518809,179.519364 C117.020497,184.590701 100.976309,187.108009 84.8061484,188.849105 C62.2941501,185.679677 41.1831076,176.574064 24.6286707,158.63508 M193.31851,148.320196 C209.651542,131.651263 217.84987,109.771705 212.239684,86.6765457 C206.313934,62.2809463 189.143636,38.7172741 170.015054,22.7143889 C152.707333,8.2373367 131.539031,-0.363042787 108.777635,0.0117676265 C86.4692267,0.380246783 64.5310986,8.56402956 46.5884303,21.5798277 C9.20670486,48.6966013 -14.3576008,102.757938 9.8340175,145.868733 C22.1944941,167.895177 44.6950404,183.413087 68.7963155,190.267306 C68.9032004,190.297696 69.0113578,190.324287 69.1182427,190.354678 C60.9975343,191.066311 52.8793708,191.727294 44.8159221,192.554156 C41.9923791,192.844128 41.963113,197.279806 44.8159221,196.986036 C57.611573,195.672933 70.5421024,194.77896 83.406465,193.441798 C110.242212,197.573577 138.023382,192.980883 163.81064,185.082007 C166.541295,184.246281 165.37574,179.966351 162.625999,180.808408 C145.180854,186.150723 126.305488,189.768403 107.65916,190.145746 C115.708612,188.725012 123.684263,186.92187 131.526307,184.485602 C154.099382,177.475635 176.709358,165.271504 193.31851,148.320196" id="Fill-39" fill="#FBEFD8"></path>
        </g>
    </g>
</svg>