<?xml version="1.0" encoding="UTF-8"?>
<svg width="31px" height="30px" viewBox="0 0 31 30" version="1.1" xmlns="http://www.w3.org/2000/svg" xmlns:xlink="http://www.w3.org/1999/xlink">
    <!-- Generator: Sketch 48.1 (47250) - http://www.bohemiancoding.com/sketch -->
    <title>OS + OS version</title>
    <desc>Created with Sketch.</desc>
    <defs></defs>
    <g id="HF-V3---Main-scroll" stroke="none" stroke-width="1" fill="none" fill-rule="evenodd" transform="translate(-355.000000, -2447.000000)">
        <g id="Details-Copy" transform="translate(355.000000, 2384.000000)" fill="#263332">
            <path d="M25.1355919,88.1954292 C23.7869923,88.1402793 22.4339806,88.0851293 21.0692037,88.0388034 C21.0611151,87.1799351 21.0530264,86.3210669 21.0456731,85.4614633 C21.0331724,84.0496251 18.8382052,84.0459485 18.8499706,85.4614633 C18.8580592,86.3012129 18.8654125,87.1394919 18.8720305,87.9792415 C18.2675873,87.9623288 17.6638794,87.9439455 17.0579655,87.9299742 C16.9954623,87.2417031 16.9410477,86.5526966 16.9278117,85.8600135 C16.9006044,84.4489106 14.7049019,84.4437633 14.7328445,85.8600135 C14.7453451,86.53799 14.7975537,87.2122898 14.857851,87.8865896 C14.2570844,87.8762949 13.6570532,87.8733536 13.0555513,87.8674709 C13.034962,87.0615466 13.028344,86.2534163 13.028344,85.438668 C13.028344,84.0260945 10.8333768,84.0231532 10.8326415,85.438668 C10.8326415,86.2490043 10.8466128,87.04684 10.8730848,87.843205 C9.59066507,87.840999 8.31633403,87.8586469 7.04273833,87.8770303 C7.1442142,86.513724 7.23171875,85.1482117 7.29716334,83.7826995 C7.96043316,83.7849055 8.62370297,83.7871115 9.28623746,83.7893175 C10.8039635,83.7952001 10.8061695,81.4369892 9.28623746,81.4318418 C8.65532227,81.4296358 8.02367174,81.4274298 7.39128588,81.4252238 C7.41040453,80.8707832 7.42143451,80.3163426 7.43467049,79.7611666 C8.16264956,79.7148407 8.89062863,79.6758681 9.62154903,79.6714561 C11.1385398,79.6626321 11.1414811,77.3051564 9.62154903,77.3139804 C8.90239395,77.3176571 8.18544487,77.355159 7.46849578,77.401485 C7.47217245,76.8470444 7.47584911,76.2926037 7.47437844,75.7381631 L10.0686311,75.8631696 C11.5848865,75.9359675 11.5804745,73.5784919 10.0686311,73.5049586 C9.19505624,73.46378 8.32295203,73.4211307 7.44937714,73.3799521 C7.42437584,72.0225285 7.37878523,70.6658403 7.31922331,69.309152 C8.49207848,69.1017883 9.66934564,68.9275145 10.8495541,68.7944193 C10.8583781,69.6422576 10.8480835,70.4915665 10.8399948,71.3511701 C10.8252882,72.8681608 13.1827638,72.8696314 13.1982058,71.3511701 C13.2062944,70.4172979 13.2055591,69.5018091 13.1857051,68.5892616 C13.7511758,68.5517596 14.3166464,68.5230817 14.884323,68.5054337 C14.888735,69.4518065 14.8740283,70.3996499 14.8652043,71.3511701 C14.8504977,72.8681608 17.2079733,72.8696314 17.22268,71.3511701 C17.2322393,70.3856786 17.2351806,69.4326878 17.2219446,68.4819031 C17.760208,68.490727 18.2970006,68.510581 18.8345286,68.5363177 L18.8257046,70.7724635 C18.8205573,72.2894542 21.1780329,72.2909249 21.1831802,70.7724635 C21.1861216,70.083457 21.1890629,69.3944506 21.1912689,68.7054441 C21.5464344,68.7392694 21.9030707,68.7576527 22.2567655,68.7995667 C24.9091095,69.1076709 25.6591485,69.3348886 25.55179,71.8850214 C25.5414953,72.1445937 25.536348,72.404166 25.527524,72.6637384 C24.4370261,72.6953577 23.3443222,72.6799157 22.2383822,72.669621 C20.7206562,72.6541791 20.7191855,75.01239 22.2383822,75.0270967 C23.3310862,75.0373913 24.4002595,75.041068 25.4672268,75.0065074 C25.4576674,75.5756547 25.4495788,76.1440666 25.4429608,76.7132139 C24.3774642,76.7257145 23.3104969,76.7043899 22.2383822,76.6940952 C20.7206562,76.6793886 20.7191855,79.0375996 22.2383822,79.0515709 C23.3090262,79.0618655 24.3656988,79.0670129 25.4209008,79.0478942 C25.4172242,79.4162957 25.4142828,79.7839619 25.4098708,80.1516281 C25.4076648,80.3178133 25.4113415,80.4935577 25.4120768,80.6648901 C24.5465906,80.6612135 23.6818397,80.6582722 22.8170888,80.6553308 C21.2993628,80.6494482 21.2971568,83.0076591 22.8170888,83.0128065 C23.695811,83.0157478 24.5737979,83.0194245 25.4532555,83.0231011 C25.4907574,84.7717216 25.4856101,86.5813746 25.1355919,88.1954292 M29.449787,80.6795968 C28.9071117,80.6781261 28.3637011,80.6759201 27.8195551,80.6737141 C27.8033778,80.0839776 27.7930831,79.507477 27.7894065,78.9442123 C28.3938497,78.8971511 28.9990283,78.8339125 29.6071481,78.7449373 C31.1028142,78.5287495 30.4667517,76.2565724 28.9806449,76.4720248 C28.5879774,76.5286454 28.1960453,76.5595294 27.8041131,76.59409 C27.8107311,76.0095008 27.8202904,75.4241762 27.8298497,74.8388516 C28.1769266,74.8028203 28.5217975,74.7719363 28.8718157,74.7204631 C30.3674818,74.4998634 29.7314193,72.2276863 28.2453126,72.4468153 C28.124718,72.4644633 28.0063295,72.470346 27.8864703,72.4857879 C27.8872057,72.4666693 27.8872057,72.448286 27.887941,72.4291673 C27.9379436,71.0776264 28.3063451,69.5209277 27.5643948,68.304688 C26.4716908,66.5178302 23.5237433,66.3303205 21.2000929,66.2611992 C21.2030342,65.5538095 21.2059756,64.8456844 21.2081815,64.1382946 C21.2140642,62.6213039 18.8565886,62.6198332 18.8507059,64.1382946 C18.8484999,64.8170064 18.8455586,65.4949829 18.8433526,66.1736947 C18.2727346,66.1464874 17.702852,66.1288394 17.1329694,66.1222214 C17.0851728,65.411155 17.0197282,64.6986179 16.9160464,63.9816688 C16.6991233,62.4860027 14.4269462,63.1220652 14.6423986,64.6089073 C14.7166672,65.121434 14.7644638,65.6339607 14.8019657,66.147958 C14.2225238,66.167812 13.6430819,66.1972253 13.0643753,66.2361979 C13.01952,65.7317599 12.9658408,65.2273219 12.8915722,64.7170012 C12.6709725,63.2213351 10.3987954,63.8573976 10.6179244,65.3442397 C10.6716037,65.7096999 10.703223,66.0729541 10.7355776,66.4369437 C9.24358818,66.6009228 7.75601075,66.8274052 6.27505131,67.1016842 C5.46397968,66.8685838 4.46833962,67.2847819 4.52201889,68.3642499 C4.60217012,69.9908051 4.65732005,71.618831 4.68820401,73.2461216 C3.50431885,73.189501 2.3204337,73.1328804 1.13581322,73.0755245 C-0.380442178,73.0019913 -0.376765516,75.3602023 1.13581322,75.4330002 C2.32925769,75.4903561 3.52196683,75.5484474 4.71541131,75.6058033 C4.71835263,76.2676024 4.71467597,76.9301369 4.71026398,77.5919361 C4.01463953,77.6367914 3.31975042,77.6720873 2.62265531,77.6772346 C1.10639992,77.6882646 1.10272326,80.0464756 2.62265531,80.0347103 C3.30724977,80.0302983 3.99037357,79.9957377 4.67276203,79.9523531 C4.66099671,80.4398784 4.65070205,80.9281391 4.63452474,81.4156645 C3.72933057,81.4127232 2.82266573,81.4090465 1.91820688,81.4068405 C0.400480823,81.4016932 0.398274826,83.7591689 1.91820688,83.7650515 C2.79178177,83.7679928 3.66609198,83.7701988 4.5404022,83.7731402 C4.46172163,85.4254321 4.3565691,87.0769886 4.22347393,88.7278098 C4.18303065,89.2241592 4.3771584,89.5763834 4.67276203,89.7933065 C4.85733046,90.0675855 5.1646994,90.2595072 5.60222217,90.2492126 C7.39422721,90.2095046 9.19652691,90.1977393 11.0017679,90.2021513 C11.0525059,90.7948292 11.1135385,91.3897131 11.194425,91.9882737 C11.3834054,93.3824639 13.4989567,92.7883153 13.311447,91.4051551 C13.258503,91.0110169 13.2217364,90.6183494 13.1864405,90.2264173 C13.815885,90.2330352 14.4460649,90.2352412 15.0762447,90.2462712 C15.1240413,90.8095358 15.1622786,91.3735358 15.1740439,91.9397417 C15.2034572,93.3508446 17.3991598,93.3559919 17.3690111,91.9397417 C17.3579811,91.3897131 17.3212145,90.8411551 17.2763592,90.2940678 C17.8160932,90.3065685 18.3543565,90.3220105 18.8940905,90.3367171 C18.8985025,90.8440965 18.9021792,91.3507405 18.9073265,91.8581198 C18.9198271,93.269958 21.1155297,93.2736347 21.103029,91.8581198 L21.089793,90.3977497 C22.7487029,90.453635 24.4009948,90.5176089 26.0393154,90.5882008 C26.5709607,90.6109961 27.0202488,90.2028866 27.1754039,89.7227146 C27.8283791,87.7012858 27.9085303,85.3518988 27.8739697,83.0326605 C28.398997,83.0333958 28.9247597,83.0356018 29.449787,83.0378078 C30.9675131,83.0429551 30.9697191,80.6854795 29.449787,80.6795968" id="OS-+-OS-version"></path>
        </g>
    </g>
</svg>