<?xml version="1.0" encoding="UTF-8"?>
<svg width="27px" height="30px" viewBox="0 0 27 30" version="1.1" xmlns="http://www.w3.org/2000/svg" xmlns:xlink="http://www.w3.org/1999/xlink">
    <!-- Generator: Sketch 48.1 (47250) - http://www.bohemiancoding.com/sketch -->
    <title>Screen res</title>
    <desc>Created with Sketch.</desc>
    <defs></defs>
    <g id="HF-V3---Main-scroll" stroke="none" stroke-width="1" fill="none" fill-rule="evenodd" transform="translate(-358.000000, -2536.000000)">
        <g id="Details-Copy" transform="translate(355.000000, 2384.000000)" fill="#3C3C3B">
            <g id="Screen-res" transform="translate(3.000000, 152.000000)">
                <path d="M6.24455982,27.359335 L5.36570253,27.359335 C5.1791101,23.0224942 4.99251767,18.6849482 4.80661889,14.3481074 C5.07783689,14.3403505 5.34974853,14.3325935 5.62235383,14.3156693 C7.28503807,14.2105978 7.29683016,11.5647724 5.62235383,11.6712541 C4.0394396,11.7713893 2.50300006,11.7206166 0.937427122,12.0344205 C-0.703753897,12.362328 -0.00940808104,14.9122493 1.62899833,14.5843418 C1.82322093,14.5455571 2.01674989,14.5272225 2.21166615,14.5011309 C2.39617762,18.7871989 2.5806891,23.073267 2.76450692,27.359335 L1.77119702,27.359335 C0.0974143521,27.359335 0.0946397435,30.0037501 1.77119702,30.0037501 L6.24455982,30.0037501 C7.9183425,30.0037501 7.9211171,27.359335 6.24455982,27.359335" id="Fill-15"></path>
                <path d="M26.4242064,1.23217238 C26.5211012,-0.413111684 23.8486571,-0.408334832 23.7524747,1.23217238 C23.7353756,1.52560753 23.737513,1.81699546 23.746775,2.10906579 C20.056223,2.37793428 16.3642461,2.64680276 12.6729817,2.91635366 L12.6729817,1.93232229 C12.6729817,0.285673418 10.00125,0.282943788 10.00125,1.93232229 L10.00125,6.02676625 C10.00125,7.67341512 12.6729817,7.67614475 12.6729817,6.02676625 L12.6729817,5.47538113 L23.9484017,4.65376271 C23.990437,5.18945246 24.0146607,5.72650702 23.9833123,6.26902085 C23.8864175,7.91430491 26.5588617,7.90884565 26.655044,6.26902085 C26.7540762,4.57596827 26.3251742,2.92454254 26.4242064,1.23217238" id="Fill-17"></path>
            </g>
        </g>
    </g>
</svg>