<?xml version="1.0" encoding="UTF-8"?>
<svg width="30px" height="30px" viewBox="0 0 30 30" version="1.1" xmlns="http://www.w3.org/2000/svg" xmlns:xlink="http://www.w3.org/1999/xlink">
    <!-- Generator: Sketch 48.1 (47250) - http://www.bohemiancoding.com/sketch -->
    <title>Browser + version</title>
    <desc>Created with Sketch.</desc>
    <defs></defs>
    <g id="HF-V3---Main-scroll" stroke="none" stroke-width="1" fill="none" fill-rule="evenodd" transform="translate(-356.000000, -2492.000000)">
        <g id="Details-Copy" transform="translate(355.000000, 2384.000000)" fill="#263332">
            <path d="M21.1425306,133.412078 C19.9268396,133.952116 18.6877388,134.292768 17.455903,134.463901 C17.4341078,134.462286 17.4171559,134.456636 17.3945534,134.455829 C16.6002373,134.425961 15.6420532,134.048176 15.0204847,133.543657 C14.1930721,132.87204 13.9396014,131.745144 13.2881653,130.908045 C12.7570068,130.228356 12.1209081,129.735944 11.364532,129.331521 C10.5686014,128.907724 8.52872667,128.331361 8.77170344,127.132622 C9.33030784,125.414832 9.50870607,123.22562 8.18646039,121.788747 C6.93202219,120.42614 5.21261848,120.581936 3.63448033,121.11713 C3.9307344,118.925496 4.88488237,116.812163 6.60105716,114.924048 C6.81981697,114.6843 7.05068527,114.470384 7.27913186,114.250817 C8.23005091,115.558532 9.84532172,116.27939 11.559882,115.837834 C12.6617534,115.554496 13.579576,114.794891 14.1672407,113.832671 C14.4925551,113.301512 14.6120254,112.706582 14.8864843,112.162508 C15.2917146,111.36012 15.7897766,111.213204 16.6349483,110.894347 C16.7406957,110.854793 16.8343346,110.80313 16.9207084,110.746624 C17.0434076,110.824925 17.1862876,110.888696 17.3606497,110.9226 C20.0979727,111.464253 22.2161489,113.056921 20.0180567,116.634572 C19.9203817,116.79279 18.3519303,118.016553 18.2179299,118.186879 C17.5059514,119.095015 17.0861909,120.170248 17.0127328,121.318938 C16.8658166,123.632465 18.3406291,125.501206 20.7703968,125.317157 C22.1523776,125.21141 24.2552164,123.249837 24.473169,124.702047 C24.6128201,125.629556 22.978983,127.07773 23.0201518,128.29665 C23.0685857,129.692354 23.7506965,130.604526 24.7008084,131.086443 C23.6497926,132.042205 22.44621,132.832485 21.1425306,133.412078 M27.8845305,114.677035 C23.0685857,107.319117 13.4488044,105.800714 6.6502983,111.331867 C0.768000243,116.118751 -0.519534463,123.246608 2.77881463,129.842499 C2.81514006,129.952282 2.86195951,130.06368 2.93783929,130.175078 C3.00161061,130.298585 3.07910486,130.395453 3.1614425,130.480212 C7.50434953,136.6628 15.2271361,138.965025 22.310595,135.751436 C24.6079767,134.709299 26.6704539,133.087571 28.2227607,131.0816 C28.3503033,130.96778 28.4423277,130.832972 28.5028701,130.682827 C29.2713548,129.62051 29.913104,128.467783 30.3578887,127.231911 C31.9545932,122.801823 30.3643466,118.466181 27.8845305,114.677035" id="Browser-+-version"></path>
        </g>
    </g>
</svg>