<?xml version="1.0" encoding="UTF-8"?>
<svg width="31px" height="26px" viewBox="0 0 31 26" version="1.1" xmlns="http://www.w3.org/2000/svg" xmlns:xlink="http://www.w3.org/1999/xlink">
    <!-- Generator: Sketch 48.1 (47250) - http://www.bohemiancoding.com/sketch -->
    <title>Shape</title>
    <desc>Created with Sketch.</desc>
    <defs></defs>
    <g id="HF-V3---Main-scroll" stroke="none" stroke-width="1" fill="none" fill-rule="evenodd" transform="translate(-409.000000, -3619.000000)">
        <g id="Footer" transform="translate(-73.000000, 3536.000000)" fill="#000000">
            <g id="Social" transform="translate(415.000000, 81.000000)">
                <path d="M97.1303261,2.49681529 C95.7767346,3.23936717 94.4283095,3.74864735 93.0816066,4.02999795 C91.8709516,2.68378878 90.338259,2 88.50075,2 C86.704572,2 85.1873785,2.65173618 83.9491695,3.91959455 C82.717849,5.19635641 82.0961613,6.74734607 82.0961613,8.55831792 C82.0961613,9.10855421 82.1633243,9.6000274 82.2976501,10.0167112 C77.0003889,9.82973769 72.6158547,7.55756455 69.1612688,3.18416547 C68.5757458,4.25436614 68.2829843,5.34415451 68.2829843,6.47133758 C68.2829843,8.78802822 69.2284318,10.6239299 71.1158825,11.9719197 C70.0395534,11.8775426 69.0906616,11.596192 68.2829843,11.1349908 C68.2829843,12.789261 68.7531248,14.1710842 69.695128,15.3873022 C70.6405755,16.5910554 71.8546747,17.3585371 73.3374257,17.6861859 C72.8001222,17.8286419 72.2335426,17.8963085 71.6514638,17.8963085 C71.1141603,17.8963085 70.7335704,17.8500103 70.5079718,17.7485104 C70.9040609,19.0965002 71.6514638,20.18985 72.7312372,21.026779 C73.8075662,21.8672694 75.0457752,22.3106637 76.4372535,22.3498391 C74.1433809,24.2106705 71.5205822,25.1312924 68.5533581,25.1312924 C67.8266207,25.1312924 67.3117049,25.1206082 67,25.0636258 C69.9224488,27.0259571 73.1755458,28 76.7747903,28 C80.458419,28 83.7132382,27.0348606 86.5461363,25.1045819 C89.3790345,23.1849873 91.4696961,20.8166564 92.8129548,18.0280803 C94.163102,15.2430655 94.8312872,12.344086 94.8312872,9.3168961 L94.8312872,8.48352853 C96.1366591,7.46852955 97.1923226,6.32532018 98,5.06280392 C96.8289539,5.584549 95.618299,5.93890829 94.366313,6.11875899 C95.7577912,5.23553181 96.6791289,4.02999795 97.1303261,2.49681529 Z" id="Shape"></path>
            </g>
        </g>
    </g>
</svg>