<?xml version="1.0" encoding="UTF-8"?>
<svg width="71px" height="33px" viewBox="0 0 71 33" version="1.1" xmlns="http://www.w3.org/2000/svg" xmlns:xlink="http://www.w3.org/1999/xlink">
    <!-- Generator: Sketch 48.1 (47250) - http://www.bohemiancoding.com/sketch -->
    <title>Arrow</title>
    <desc>Created with Sketch.</desc>
    <defs></defs>
    <g id="HF-V3---Main-scroll" stroke="none" stroke-width="1" fill="none" fill-rule="evenodd" transform="translate(-1166.000000, -3586.000000)">
        <g id="Arrow" transform="translate(1162.000000, 3577.000000)" fill="#8A8C77">
            <path d="M53.8265739,23.0111443 C53.9805739,20.6011443 50.2295739,20.6111443 50.0765739,23.0111443 C49.5215739,31.6491443 49.2265739,40.2931443 49.1715739,48.9451443 C37.1055739,30.5311443 36.6195739,8.13214425 38.3385739,-13.2118557 C38.5315739,-15.6168557 34.7805739,-15.6038557 34.5885739,-13.2118557 C32.8085739,8.88114425 33.5155739,32.1951443 46.1695739,51.1871443 C39.1275739,47.2051443 32.3675739,42.7811443 25.8945739,37.8971443 C23.9685739,36.4431443 22.0975739,39.6981443 24.0025739,41.1341443 C32.2415739,47.3521443 40.9395739,52.8351443 50.1005739,57.5901443 C51.3345739,58.2311443 52.9355739,57.4501443 52.9225739,55.9711443 C52.8205739,44.9731443 53.1215739,33.9871443 53.8265739,23.0111443" id="Fill-1" transform="translate(38.519065, 21.402609) rotate(80.000000) translate(-38.519065, -21.402609) "></path>
        </g>
    </g>
</svg>