<?xml version="1.0" encoding="UTF-8"?>
<svg width="251px" height="232px" viewBox="0 0 251 232" version="1.1" xmlns="http://www.w3.org/2000/svg" xmlns:xlink="http://www.w3.org/1999/xlink">
    <!-- Generator: Sketch 48.1 (47250) - http://www.bohemiancoding.com/sketch -->
    <title>Group 33</title>
    <desc>Created with Sketch.</desc>
    <defs></defs>
    <g id="9.0-Lines-and-sketches" stroke="none" stroke-width="1" fill="none" fill-rule="evenodd" transform="translate(-268.000000, -1085.000000)">
        <g id="Group-33" transform="translate(268.000000, 1085.000000)" fill="#2B3232">
            <path d="M28.8383377,186.789433 C-10.9172558,143.473879 4.79546352,77.7365599 44.7283577,40.292912 C81.3715038,5.93056114 137.616066,-7.08631654 181.842916,20.5872196 C205.265982,35.243878 224.07327,58.4944782 236.079063,83.2104461 C249.330431,110.490435 248.421578,139.75903 229.079409,163.759458 C210.792104,186.451042 182.52083,202.379276 155.168839,211.3772 C137.021587,217.346002 118.233668,220.309533 99.3012272,222.360749 C72.9415241,218.628012 48.2222252,207.909809 28.8383377,186.789433 M190.421888,212.893252 C169.996545,219.184047 147.893549,223.441514 126.05874,223.887236 C135.485477,222.213169 144.824309,220.090398 154.0067,217.223763 C180.437919,208.969703 206.910857,194.603733 226.361791,174.646111 C245.484942,155.022408 255.08451,129.265924 248.515443,102.075378 C241.578366,73.3553639 221.471866,45.6147458 199.072376,26.7766465 C178.807944,9.73187104 154.020109,-0.393029692 127.369871,0.0482203984 C101.248556,0.48201694 75.5608073,10.1164742 54.5499247,25.4409706 C10.7804809,57.3630295 -16.8113879,121.008883 11.5150125,171.760097 C25.9881166,197.690993 52.3344104,215.959642 80.5550264,224.028854 C80.6801799,224.066121 80.8068232,224.095935 80.9319767,224.131713 C71.4232934,224.969491 61.9175899,225.747642 52.475953,226.722566 C49.1698157,227.063939 49.1355475,232.284404 52.475953,231.94005 C67.4586105,230.394184 82.5991996,229.340252 97.6623128,227.766063 C129.084772,232.630249 161.614242,227.223445 191.809005,217.924397 C195.006378,216.940529 193.6431,211.90193 190.421888,212.893252" id="Fill-31"></path>
        </g>
    </g>
</svg>