<?xml version="1.0" encoding="UTF-8"?>
<svg width="125px" height="56px" viewBox="0 0 125 56" version="1.1" xmlns="http://www.w3.org/2000/svg" xmlns:xlink="http://www.w3.org/1999/xlink">
    <!-- Generator: Sketch 50.2 (55047) - http://www.bohemiancoding.com/sketch -->
    <title>Fill 1 Copy</title>
    <desc>Created with Sketch.</desc>
    <defs></defs>
    <g id="Pattern-Library" stroke="none" stroke-width="1" fill="none" fill-rule="evenodd">
        <g id="9.0-Lines-and-sketches" transform="translate(-295.000000, -1720.000000)" fill="#DC8F69">
            <path d="M403.691642,1757.7374 C398.281343,1760.98874 392.464562,1763.42071 386.40562,1765.25371 C385.897825,1764.6423 385.114512,1764.25004 384.137224,1764.42936 C362.377419,1768.38924 339.102879,1772.70776 317.401144,1766.11667 C310.353794,1763.97733 296.700172,1758.53934 299.976745,1748.68322 C303.064284,1739.39617 315.622009,1734.73023 323.941935,1732.20736 C334.58709,1728.97595 345.70421,1727.51029 356.727431,1726.32108 C366.911741,1725.22277 377.269023,1724.18797 387.513873,1725.00361 C396.6863,1725.73457 408.842484,1727.97601 413.819119,1736.85089 C418.792047,1745.71704 410.753818,1753.49236 403.691642,1757.7374 M419.795281,1740.05366 C418.323789,1730.98951 409.796298,1725.45439 401.74942,1722.87299 C389.772385,1719.02892 376.585786,1719.79225 364.250453,1720.89554 C351.018139,1722.07853 337.536253,1723.51928 324.706715,1727.12302 C314.760859,1729.91735 303.04081,1734.41269 297.305572,1743.70223 C292.949163,1750.75655 295.054472,1758.15954 301.201135,1763.24638 C308.554891,1769.33189 318.604531,1772.06397 328.252629,1773.27185 C328.032709,1774.57438 328.76166,1776.04502 330.450602,1775.99894 C355.978712,1775.29413 387.148162,1775.36387 408.968506,1759.85681 C415.401807,1755.28427 421.170404,1748.52756 419.795281,1740.05366" id="Fill-1-Copy"></path>
        </g>
    </g>
</svg>