<?xml version="1.0" encoding="UTF-8"?>
<svg width="381px" height="236px" viewBox="0 0 381 236" version="1.1" xmlns="http://www.w3.org/2000/svg" xmlns:xlink="http://www.w3.org/1999/xlink">
    <!-- Generator: Sketch 48.1 (47250) - http://www.bohemiancoding.com/sketch -->
    <title>Handbook facing shapes</title>
    <desc>Created with Sketch.</desc>
    <defs></defs>
    <g id="HF-V3---Main-scroll" stroke="none" stroke-width="1" fill="none" fill-rule="evenodd" transform="translate(-835.000000, -3228.000000)">
        <g id="Handbook-facing-shapes" transform="translate(843.000000, 3228.000000)">
            <rect id="Rectangle-Copy-3" stroke="#99C9AF" stroke-width="16" x="58" y="10" width="112" height="112"></rect>
            <rect id="Rectangle-Copy-14" stroke="#FBEFD8" stroke-width="16" x="202" y="10" width="74" height="71"></rect>
            <path d="M327.283196,74.1061367 C329.230727,77.4622781 332.873008,86.2739242 338.170193,85.9934569 C343.75876,85.6952384 342.666698,78.4409554 346.345091,77.2184963 C349.241483,76.2563867 347.637634,77.4717453 348.390995,79.5947769 C348.659964,80.3474236 348.896556,80.8728561 349.33114,81.5024285 C350.481727,83.1662983 352.761733,84.678692 354.85371,85.033714 C356.369148,85.2928801 357.943112,85.2017578 359.18211,84.247932 C359.705104,83.8467571 360.128481,83.144997 360.422353,82.6018133 C360.651475,82.1166166 360.809618,81.6089351 360.898029,81.0775855 C361.094775,77.7723306 363.796912,77.1829941 369.003195,79.3083925 C370.410299,81.5414809 374.096163,79.5072048 372.682833,77.2646492 C370.468824,73.7487479 366.329698,71.598498 362.052352,73.2990534 C360.09984,74.0765516 358.532103,75.497823 357.621844,77.3060684 C357.168582,78.1557544 356.890897,79.0539601 356.788789,80.0006854 C355.583411,79.8776111 354.376789,79.7533534 353.170166,79.6314625 C352.169006,78.7675757 352.230022,76.0658582 351.779251,74.9084865 C350.506631,71.648201 347.049888,69.7109643 343.742572,71.9925724 C341.875981,73.2801189 341.191107,75.4623208 340.473858,77.412575 C339.197503,80.8846902 338.200078,81.5793499 334.96125,78.4267545 C333.267744,76.7770856 332.125874,74.0659009 330.962834,72.0623934 C329.63916,69.7796019 325.958277,71.819795 327.283196,74.1061367" id="Fill-10" fill="#FBEFD8"></path>
            <path d="M321.7046,4.68325288 C324.754953,4.51624724 324.775297,-0.124035375 321.7046,0.0442073434 C315.420799,0.386878174 309.138269,-0.236609547 302.854467,0.107298363 C299.792671,0.275541081 299.779956,4.59294613 302.854467,4.7463439 C303.291866,4.76861132 303.726723,4.79087874 304.164122,4.81190908 C304.550661,4.83170234 304.88634,4.77355963 305.174972,4.65974838 C306.841922,4.62511018 308.5076,4.6411922 310.174549,4.67088209 C309.364597,56.8595259 308.555917,109.04817 307.747237,161.236813 C305.26525,161.278874 302.783262,161.319698 300.302547,161.360521 C297.236936,161.412479 297.228036,166.051524 300.302547,165.999567 C307.082237,165.886993 313.861928,165.773181 320.641618,165.65937 C323.705957,165.607413 323.716129,160.968367 320.641618,161.020325 C317.933302,161.064859 315.224986,161.110631 312.51667,161.156403 C313.324079,109.027139 314.132759,56.8966382 314.940168,4.76613716 C317.194555,4.80324953 319.450214,4.80696076 321.7046,4.68325288" id="Fill-11" fill="#FBEFD8"></path>
            <path d="M152.781048,137.790329 C152.287422,150.606797 152.44404,163.410605 153.250902,176.214413 C153.442479,179.251725 158.68778,179.271982 158.494804,176.214413 C157.687942,163.410605 157.531324,150.606797 158.02495,137.790329 C158.142414,134.734026 152.898512,134.73909 152.781048,137.790329" id="Fill-8" fill="#FBEFD8" transform="translate(155.500000, 157.000000) rotate(90.000000) translate(-155.500000, -157.000000) "></path>
            <path d="M151.781048,157.790329 C151.287422,170.606797 151.44404,183.410605 152.250902,196.214413 C152.442479,199.251725 157.68778,199.271982 157.494804,196.214413 C156.687942,183.410605 156.531324,170.606797 157.02495,157.790329 C157.142414,154.734026 151.898512,154.73909 151.781048,157.790329" id="Fill-8" fill="#FBEFD8" transform="translate(154.500000, 177.000000) rotate(90.000000) translate(-154.500000, -177.000000) "></path>
            <rect id="Rectangle-Copy-15" stroke="#263332" stroke-width="16" transform="translate(238.500000, 173.500000) rotate(90.000000) translate(-238.500000, -173.500000) " x="184" y="138" width="109" height="71"></rect>
            <path d="M0.4,71.6666667 L91.6008772,71.6666667" id="Line" stroke="#E9CC9D" stroke-width="16" stroke-linecap="square"></path>
        </g>
    </g>
</svg>